<svg xmlns="http://www.w3.org/2000/svg" viewBox="0 0 189.75 384.21"><defs><style>.cls-1{fill:#fff;}.cls-2{fill:#3c3c3b;}.cls-3{fill:#feac14;}.cls-4{fill:#ffda00;}</style></defs><g id="Camada_2" data-name="Camada 2"><g id="BACKGROUND"><path class="cls-1" d="M120.93,72.68c13.55,19.54,15,44.8,14.87,68.58s-1.24,48.51,8.37,70.26c3,6.75,6.93,13,10.86,19.26l10.33,16.39c3.83,6.09,7.74,12.35,6.67,20.34-.41,3-2.53,7.36-4.88,9.32-27.12,22.62-59.62,24.24-71.29,22.68-5.89-.79-11.7-6-13.81-11.55,0-.09-.07-.18-.1-.28-1.56-4.31-1.8-9-2-13.55l-1-19.34c-.36-7.37-.73-14.77-2.16-22-4.61-23.32-19.7-42.95-33.47-62.34s-27.07-40.91-27.19-64.69Z"/><path class="cls-2" d="M121.06,72.3c.44.57.89,1.17,1.31,1.79s.72,1.14,1.09,1.71c.7,1.14,1.38,2.3,2,3.48a75.11,75.11,0,0,1,3.41,7.27,89.4,89.4,0,0,1,4.55,15.36,170.16,170.16,0,0,1,3,31.83c.15,10.66-.28,21.28,0,31.89s1,21.23,3.54,31.51a83.91,83.91,0,0,0,5.11,15,119.84,119.84,0,0,0,7.66,13.9q4.26,6.74,8.61,13.42l4.35,6.69c1.44,2.23,2.93,4.46,4.21,6.86a28.48,28.48,0,0,1,2.91,7.7,19.73,19.73,0,0,1,0,8.38,19.28,19.28,0,0,1-3.85,7.48,11.34,11.34,0,0,1-1.58,1.47l-1.58,1.25c-1.05.84-2.15,1.62-3.22,2.42a103.16,103.16,0,0,1-28.75,14.23,108.91,108.91,0,0,1-15.64,3.66,95.57,95.57,0,0,1-16,1.18c-1.35,0-2.69-.09-4-.19a22.79,22.79,0,0,1-4.08-.62,18.2,18.2,0,0,1-7.2-4,20.59,20.59,0,0,1-5-6.55,27.93,27.93,0,0,1-2-7.89c-.34-2.68-.45-5.36-.57-8l-.37-8c-.25-5.31-.46-10.62-.8-15.92a117.74,117.74,0,0,0-1.93-15.73,90.76,90.76,0,0,0-4.47-15.12,149.52,149.52,0,0,0-15-27.85c-5.85-8.85-12.21-17.37-18.21-26.18A172.09,172.09,0,0,1,22.6,136.9c-4.29-9.77-7.24-20.33-7.38-31.15v-.68l.65-.21Q29,100.62,42.2,96.55l26.35-8.18Zm-.26.76-52.27,17L42.48,98.41q-13,4.19-26.06,8.22l.65-.89a76.57,76.57,0,0,0,6.77,30.62c4.19,9.71,9.81,18.76,15.78,27.52S52.09,181.09,58,190,69.52,208,73.41,218a79.08,79.08,0,0,1,4.37,15.49,136.3,136.3,0,0,1,1.51,16c.24,5.32.51,10.62.8,15.94l.42,8c.14,2.66.26,5.3.62,7.89a26.7,26.7,0,0,0,2,7.47,19.2,19.2,0,0,0,4.68,6,16.9,16.9,0,0,0,6.62,3.63,22.89,22.89,0,0,0,3.8.53c1.31.09,2.62.16,3.93.17a92.28,92.28,0,0,0,15.74-1.22,105.17,105.17,0,0,0,15.38-3.65A97.23,97.23,0,0,0,161.37,280c1-.8,2.11-1.57,3.13-2.41l1.52-1.24a8.9,8.9,0,0,0,1.33-1.25,17.3,17.3,0,0,0,3.38-6.59,18.67,18.67,0,0,0,.06-7.45,27.19,27.19,0,0,0-2.6-7.22c-1.16-2.32-2.55-4.57-3.93-6.84l-4.15-6.81-8.36-13.6a133.34,133.34,0,0,1-7.72-14,84.94,84.94,0,0,1-5.21-15.17c-2.55-10.4-3.4-21.11-3.67-31.76s0-21.3-.05-31.9a169,169,0,0,0-2.8-31.62,92.18,92.18,0,0,0-4.39-15.21,73.11,73.11,0,0,0-3.26-7.22c-.6-1.18-1.25-2.32-1.92-3.46l-1-1.67C121.38,74.09,121.09,73.59,120.8,73.06Z"/><path class="cls-3" d="M103.45,84.12c6.69-2.21,13.38-6.67,15.33.11,5.65,19.72,7.62,59.92,7.75,74.15.16,17.74-.36,36.18,6.76,52.52a119.39,119.39,0,0,0,8,14.49l7.56,12.34a36.63,36.63,0,0,1,4.51,9.21c.9,3.32,1.15,7.43-1.12,9.82C133.93,276,109.52,275.87,100.11,275a12.28,12.28,0,0,1-10.43-7.83l0-.1A36.4,36.4,0,0,1,88,256.91l-.9-14.45A119.42,119.42,0,0,0,85.36,226c-3.55-17.46-14.56-32.27-24.61-46.89-8.09-11.75-28.62-44.45-35.19-63.54-2.25-6.54,4.79-7.27,11.36-9.45Z"/><path class="cls-1" d="M10.07,91.4c.47,1.44,1.25,3,.74,4.39A7.15,7.15,0,0,1,9.17,98a10.27,10.27,0,0,0-1.43,11.28c1.83,3.54,5.68,5.71,9.61,6.4s8,.09,11.88-.69a122.51,122.51,0,0,0,14-3.69c6-2,11.87-4.42,18.1-5.38s13-.28,18.06,3.51a34,34,0,0,1,6.29,6.87l8.31,11c1.48,1.94,3,3.95,5.16,5.13,4.63,2.55,10.88.18,13.83-4.22s3.1-10.16,1.87-15.31c-1.13-4.72-3.33-9.17-4.06-14s.17-11,4.62-12.94c20.7-9.07,12.1-27.68,6.8-30.22-1.37-.66-2.9-.92-4.27-1.57-2.48-1.16-4.22-3.44-6.17-5.36-5.66-5.61-14.07-8.62-21.87-7S75.37,50.14,74.5,58.06c-5.23-4.36-12.15-7-18.89-6s-13,6.27-14,13a10.65,10.65,0,0,0-11.17-.22c-4.58,2.68-3.34,7.88-6.55,11-2.46,2.38-7,1.34-10,3.5A11,11,0,0,0,10.07,91.4Z"/><path class="cls-2" d="M10.45,91.28c.23.68.52,1.38.73,2.13a4.26,4.26,0,0,1,0,2.43,5.3,5.3,0,0,1-1.34,2A10.2,10.2,0,0,0,8.55,99.5a9.88,9.88,0,0,0-.92,8.21,10.66,10.66,0,0,0,5.69,6,17.66,17.66,0,0,0,8.39,1.56A52,52,0,0,0,30.4,114c2.9-.6,5.77-1.32,8.61-2.13,5.7-1.58,11.19-3.9,17-5.45s12-2.21,17.91-.4a19.28,19.28,0,0,1,7.83,4.64,76.14,76.14,0,0,1,5.82,6.87l5.56,7c1.87,2.32,3.54,4.85,5.72,6.39a8.43,8.43,0,0,0,7.56,1,11.35,11.35,0,0,0,6.25-5,16.11,16.11,0,0,0,2-8.1,27.35,27.35,0,0,0-1.47-8.49c-.87-2.8-2-5.6-2.7-8.56a21.2,21.2,0,0,1-.45-9.18,11.79,11.79,0,0,1,1.73-4.41,8.33,8.33,0,0,1,1.64-1.82,8.84,8.84,0,0,1,1-.68c.37-.19.74-.37,1.06-.51a26.93,26.93,0,0,0,7.31-4.64,15.27,15.27,0,0,0,4.55-15.69,16.22,16.22,0,0,0-4.19-7.29,6,6,0,0,0-1.59-1.07,19.92,19.92,0,0,0-2-.67,13.19,13.19,0,0,1-2.22-.84,10.76,10.76,0,0,1-2-1.31,33.17,33.17,0,0,1-3.28-3.19,30.35,30.35,0,0,0-3.17-2.95,28.55,28.55,0,0,0-3.59-2.37,27.12,27.12,0,0,0-4-1.72,20.54,20.54,0,0,0-16.67,1.21c-5,2.78-8.87,7.85-9.51,13.56L75,59.38l-1-.81a26.49,26.49,0,0,0-8.62-4.83,20.59,20.59,0,0,0-9.68-.84,17.37,17.37,0,0,0-8.56,4.15,14,14,0,0,0-4.64,8.12l-.22,1.48-1.22-.86a9.84,9.84,0,0,0-10.61,0,7.94,7.94,0,0,0-3.12,4.55c-.64,1.87-1.2,4.07-2.81,5.71a6,6,0,0,1-2.9,1.67,25.24,25.24,0,0,1-3.08.59,15.8,15.8,0,0,0-2.89.66,6.94,6.94,0,0,0-2.4,1.54A10.63,10.63,0,0,0,10.45,91.28Zm-.76.25a11.52,11.52,0,0,1,3-11.76A8,8,0,0,1,15.36,78a16.45,16.45,0,0,1,3.06-.8c2-.37,4.07-.65,5.25-2s1.76-3.31,2.37-5.29a13.45,13.45,0,0,1,1.26-3,8.09,8.09,0,0,1,2.32-2.45,11.47,11.47,0,0,1,6.23-2,10.77,10.77,0,0,1,6.34,1.81l-1.44.62a15.4,15.4,0,0,1,5.16-9.29,18.1,18.1,0,0,1,9.6-4.45,22.14,22.14,0,0,1,10.41,1.21,29.59,29.59,0,0,1,9,5.18L73.83,58A19.18,19.18,0,0,1,75,53.5a20.72,20.72,0,0,1,2.21-4.06A22.74,22.74,0,0,1,80.23,46,23.47,23.47,0,0,1,84,43.32a22.43,22.43,0,0,1,4.24-1.83,23.29,23.29,0,0,1,4.54-.84,26.29,26.29,0,0,1,4.61.13,27.51,27.51,0,0,1,4.49,1,28.71,28.71,0,0,1,4.25,1.78A29.23,29.23,0,0,1,110,46a31.27,31.27,0,0,1,3.4,3.09,31.33,31.33,0,0,0,3.1,3A10.11,10.11,0,0,0,120.14,54a22.59,22.59,0,0,1,2.18.81,7.47,7.47,0,0,1,2.05,1.46,17.61,17.61,0,0,1,4.23,8.2,18.11,18.11,0,0,1-.12,9.13,17.58,17.58,0,0,1-4.79,7.77,28,28,0,0,1-7.58,5c-2.65,1-4,3.65-4.47,6.42a19.87,19.87,0,0,0,.49,8.49c.72,2.81,1.81,5.57,2.73,8.44a29.67,29.67,0,0,1,1.59,9,18.67,18.67,0,0,1-2.14,9,13.28,13.28,0,0,1-7.24,6.06,11.3,11.3,0,0,1-4.84.58,9.69,9.69,0,0,1-4.63-1.76,16.34,16.34,0,0,1-3.33-3.37c-.93-1.21-1.78-2.4-2.67-3.6l-5.22-7.24a56.79,56.79,0,0,0-5.46-6.94,17.1,17.1,0,0,0-7.33-4.42,25,25,0,0,0-8.62-1,40,40,0,0,0-8.65,1.5c-5.68,1.57-11.18,3.92-16.94,5.57q-4.31,1.26-8.69,2.21a47.65,47.65,0,0,1-9,1.25,18.38,18.38,0,0,1-8.94-1.82A11.81,11.81,0,0,1,6.7,108,10.73,10.73,0,0,1,9.27,97.25a4.72,4.72,0,0,0,1.18-1.66C10.85,94.35,10.16,93,9.69,91.53Z"/><path class="cls-2" d="M164.24,256.61a33.69,33.69,0,0,0,1.1,3.88,9.47,9.47,0,0,1,.17,4.34,10.67,10.67,0,0,1-1.71,4,8.68,8.68,0,0,1-3.05,2.88.47.47,0,0,1-.65-.2.45.45,0,0,1,0-.39,15.07,15.07,0,0,1,2-3.49,19.44,19.44,0,0,0,1.92-3.24,6.14,6.14,0,0,0,.45-3.67c-.23-1.28-.73-2.55-1.06-3.93a.46.46,0,0,1,.34-.55.44.44,0,0,1,.54.34A.07.07,0,0,1,164.24,256.61Z"/><path class="cls-2" d="M87.41,281.16a10.61,10.61,0,0,0,5.1,6.93,17.7,17.7,0,0,0,8.53,2.38,54.61,54.61,0,0,0,9-.53c3-.38,6-.9,8.94-1.53A109,109,0,0,0,136.25,283c2.79-1.15,5.54-2.38,8.25-3.72s5.36-2.78,8-4.24a.3.3,0,0,1,.43.12.32.32,0,0,1-.09.42,74.81,74.81,0,0,1-7.74,4.9c-2.7,1.43-5.47,2.76-8.3,3.92s-5.74,2.15-8.67,3-5.92,1.55-8.92,2.14-6,1-9.07,1.3a62.16,62.16,0,0,1-9.16.31,18.35,18.35,0,0,1-8.82-2.54,11.54,11.54,0,0,1-5.4-7.34.31.31,0,0,1,.25-.37.32.32,0,0,1,.38.25Z"/><path class="cls-2" d="M124.7,89.4c1.06,2.9,2.09,5.81,2.92,8.78s1.63,5.95,2.27,9c.31,1.52.58,3,.82,4.57s.38,3.08.52,4.62a42.26,42.26,0,0,1-.17,9.27.32.32,0,0,1-.36.28.32.32,0,0,1-.28-.29c-.31-3.07-.47-6.1-.7-9.15l-.18-2.28-.23-2.27c-.15-1.52-.35-3-.55-4.55a79,79,0,0,0-1.8-9,78,78,0,0,0-2.86-8.72.32.32,0,0,1,.59-.25Z"/><path class="cls-2" d="M23.41,122c1.71,4.29,3.67,8.49,5.69,12.65s4.26,8.2,6.61,12.18q1.76,3,3.58,5.93c1.21,2,2.43,3.92,3.68,5.86,2.49,3.88,5,7.74,7.44,11.69a.33.33,0,0,1-.1.45.33.33,0,0,1-.42-.07,100.46,100.46,0,0,1-8.19-11.26c-1.23-2-2.45-3.94-3.62-6s-2.28-4-3.38-6.09q-3.26-6.15-6.22-12.45c-2-4.17-3.84-8.43-5.67-12.69a.33.33,0,1,1,.6-.26Z"/><path class="cls-2" d="M72.12,204.1a97,97,0,0,1,5,10.31,97.82,97.82,0,0,1,3.77,10.84l.73,2.79.63,2.81.5,2.83.4,2.86a49.15,49.15,0,0,1,.11,11.5.32.32,0,0,1-.35.28.33.33,0,0,1-.29-.3c-.28-3.8-.54-7.56-1-11.31l-.35-2.81-.44-2.8-.5-2.79-.58-2.77a76.09,76.09,0,0,0-3.3-10.87,74.31,74.31,0,0,0-4.92-10.26.32.32,0,0,1,.11-.44.32.32,0,0,1,.44.12Z"/><path class="cls-2" d="M131.6,161.88a97,97,0,0,0-.31,18,103.63,103.63,0,0,0,3,17.68l1.21,4.32,1.39,4.26,1.54,4.21,1.71,4.13a156.61,156.61,0,0,0,8.13,16,.32.32,0,0,1-.11.44.31.31,0,0,1-.42-.08,77.51,77.51,0,0,1-9-15.73L137,210.82l-1.5-4.28-1.29-4.35-1.1-4.4a113.38,113.38,0,0,1-2.18-36,.33.33,0,0,1,.65.06Z"/><path class="cls-2" d="M146.77,242.67a53.35,53.35,0,0,0-15.09-.19,56.7,56.7,0,0,0-14.54,3.92l-3.44,1.54-3.33,1.75-3.23,1.93-3.09,2.12A76.13,76.13,0,0,0,92.86,263.8a.32.32,0,0,1-.45,0,.33.33,0,0,1,0-.43,45.14,45.14,0,0,1,10.8-10.87l3.2-2.14,3.34-1.92,3.46-1.68,3.56-1.46a64.1,64.1,0,0,1,14.88-3.52,59.51,59.51,0,0,1,15.26.23.32.32,0,0,1,.28.36.33.33,0,0,1-.37.28Z"/><path class="cls-2" d="M101.52,268.77a51.63,51.63,0,0,0,15-1.88c1.22-.34,2.43-.69,3.63-1.08l1.8-.58,1.79-.63c2.37-.86,4.71-1.77,7.14-2.57a.33.33,0,0,1,.29.58,29.38,29.38,0,0,1-6.93,3.41c-1.22.41-2.45.8-3.69,1.14s-2.51.6-3.77.85a86.71,86.71,0,0,1-15.32,1.41.33.33,0,0,1-.32-.33.32.32,0,0,1,.32-.32Z"/><path class="cls-2" d="M137.59,258.26a13.72,13.72,0,0,0,4.55-2.59l2-1.66a8.58,8.58,0,0,1,2.23-1.42.34.34,0,0,1,.45.19.32.32,0,0,1,0,.27,5.51,5.51,0,0,1-1.73,2.14,12.69,12.69,0,0,1-2.32,1.45c-1.65.8-3.29,1.51-5,2.22a.32.32,0,0,1-.42-.17.32.32,0,0,1,.17-.42Z"/><path class="cls-2" d="M113.51,263.73a54.92,54.92,0,0,0,12.45-4c1-.46,2-.92,3-1.4s2-1,2.92-1.45c1.94-1,3.87-2,5.92-2.82a.32.32,0,0,1,.34.54,25.54,25.54,0,0,1-5.58,3.62c-1,.48-2,1-3,1.39s-2.07.81-3.11,1.18a124,124,0,0,1-12.75,3.61.33.33,0,0,1-.39-.25.32.32,0,0,1,.25-.38Z"/><path class="cls-2" d="M121.21,132.82c.18,3,.42,6.05.54,9.09s.28,6.06.37,9.1c0,1.52,0,3,0,4.56s-.08,3.05-.13,4.57A55.46,55.46,0,0,1,121,169.2a.32.32,0,0,1-.39.24.31.31,0,0,1-.25-.3c-.09-3,.05-6.06.21-9.08l.23-4.52L121,151c.13-3,.17-6,.11-9.08s-.21-6.05-.51-9.06a.33.33,0,0,1,.65-.06Z"/><path class="cls-2" d="M52.91,159.44c2.05,3.17,4.21,6.28,6.31,9.42s4.3,6.21,6.49,9.3L69,182.8l3.19,4.69c2.1,3.14,4.13,6.32,5.93,9.67a.32.32,0,0,1-.54.35c-2.4-2.94-4.56-6-6.65-9.18l-3.1-4.75-3-4.78q-3-4.81-6.1-9.56c-2.09-3.15-4.13-6.33-6.27-9.44a.32.32,0,0,1,.53-.37Z"/><path class="cls-2" d="M62.67,167.55a81.55,81.55,0,0,0,5.07,6.94c.88,1.13,1.77,2.25,2.58,3.44a17.3,17.3,0,0,1,2.07,3.78.34.34,0,0,1-.2.43.33.33,0,0,1-.33-.06,16.84,16.84,0,0,1-2.79-3.3c-.82-1.17-1.55-2.41-2.28-3.64-1.45-2.48-3-4.91-4.65-7.23a.31.31,0,0,1,.07-.45.33.33,0,0,1,.45.07Z"/><path class="cls-2" d="M33.37,121.11a100.55,100.55,0,0,0,4.77,11.28c.89,1.83,1.8,3.66,2.65,5.51A40.79,40.79,0,0,1,43,143.62a.33.33,0,0,1-.22.41.35.35,0,0,1-.36-.13,29.81,29.81,0,0,1-3-5.36c-.86-1.87-1.61-3.78-2.33-5.7-1.41-3.85-2.82-7.7-4.31-11.51a.32.32,0,0,1,.18-.42.33.33,0,0,1,.42.19Z"/><path class="cls-2" d="M122.46,184.69a66,66,0,0,0,1.21,9.5,66.69,66.69,0,0,0,2.58,9.22l.82,2.24.89,2.22.92,2.2,1,2.17c1.34,2.88,2.78,5.71,4.15,8.62a.32.32,0,0,1-.15.43.33.33,0,0,1-.39-.09,40.38,40.38,0,0,1-5-8.33l-1-2.23-.88-2.26-.79-2.3-.71-2.32a93.31,93.31,0,0,1-2.15-9.44,91,91,0,0,1-1.18-9.59.32.32,0,0,1,.29-.35.33.33,0,0,1,.35.3Z"/><path class="cls-2" d="M85,211A112.55,112.55,0,0,1,90.4,227c.34,1.36.63,2.74.91,4.13s.44,2.78.62,4.18a36.18,36.18,0,0,1,.07,8.45.32.32,0,0,1-.36.28.31.31,0,0,1-.28-.27c-.39-2.78-.63-5.54-.93-8.29-.14-1.38-.32-2.75-.51-4.13s-.41-2.74-.65-4.11a65.38,65.38,0,0,0-4.87-15.93A.32.32,0,1,1,85,211Z"/><path class="cls-4" d="M43.88,133.28c1.52,6.79,5,13,8.54,18.95A339.43,339.43,0,0,0,81.21,193c1.76,2.14,3.88,4.43,6.65,4.53,2.92.1,5.42-2.49,6.1-5.33s0-5.83-1-8.58C90.61,177,86.86,171,83.14,165Q72.07,147.24,61,129.48c-2.4-3.86-6.75-10.53-12.15-9.94C42.59,120.23,42.85,128.7,43.88,133.28Z"/><path class="cls-4" d="M94.56,220.72c1.53,1.29,3.86,2.34,5.41,1.07a4.27,4.27,0,0,0,1.23-2.14c1.76-5.73-.62-20.76-9.45-18.89C81.81,202.86,90.39,217.22,94.56,220.72Z"/><path class="cls-2" d="M23.21,92.77a50.73,50.73,0,0,1,30.07-7.43c5.25.34,10.39,1.36,15.52,1.9s10.27.7,15.26-.64a.34.34,0,0,1,.4.23.32.32,0,0,1-.19.38A24.66,24.66,0,0,1,76.54,89a42.61,42.61,0,0,1-7.91-.25c-2.61-.3-5.19-.71-7.76-1.13s-5.12-.85-7.69-1.12a45.49,45.49,0,0,0-15.38.88,46.15,46.15,0,0,0-14.25,5.95.33.33,0,0,1-.45-.1.32.32,0,0,1,.1-.44Z"/><path class="cls-2" d="M121.92,61.2A16.61,16.61,0,0,1,122.63,74a14.64,14.64,0,0,1-1.51,3,15.55,15.55,0,0,1-2.18,2.54,11.12,11.12,0,0,1-5.9,2.94.33.33,0,0,1-.37-.27.35.35,0,0,1,.17-.34,24.39,24.39,0,0,0,5.08-3.44,15.6,15.6,0,0,0,2-2.25,14.41,14.41,0,0,0,1.6-2.6,13.51,13.51,0,0,0-.22-12,.32.32,0,0,1,.13-.44.32.32,0,0,1,.43.13Z"/><path class="cls-2" d="M119.9,66.19a19.65,19.65,0,0,1-.84,6.11,9.94,9.94,0,0,1-1.39,2.83,5.5,5.5,0,0,1-2.44,2,.34.34,0,0,1-.44-.2.31.31,0,0,1,0-.28h0a21,21,0,0,1,1.63-2.4A23.92,23.92,0,0,0,118,71.85a9.6,9.6,0,0,0,1.26-5.62.33.33,0,0,1,.29-.36.33.33,0,0,1,.35.29Z"/><path class="cls-2" d="M104.64,128.31a8.78,8.78,0,0,0,3.82-3.57,11.24,11.24,0,0,0,1.51-5,19,19,0,0,0-.5-5.21c-.38-1.72-.92-3.4-1.36-5.19a.32.32,0,0,1,.24-.4.34.34,0,0,1,.34.12,13.57,13.57,0,0,1,2.26,5.14,14.87,14.87,0,0,1,.16,5.68A14.19,14.19,0,0,1,109,125.1a11.17,11.17,0,0,1-4.11,3.79.32.32,0,0,1-.44-.13.34.34,0,0,1,.13-.44Z"/><path class="cls-2" d="M105.33,122.87a5.76,5.76,0,0,0,1.1-3.27c0-.57,0-1.14,0-1.69a4.39,4.39,0,0,1,.37-1.73h0a.37.37,0,0,1,.5-.18.49.49,0,0,1,.14.11A2.77,2.77,0,0,1,108,118a6.07,6.07,0,0,1-.44,1.88,31.9,31.9,0,0,1-1.68,3.36.32.32,0,0,1-.44.12.32.32,0,0,1-.13-.44Z"/><path class="cls-2" d="M11.05,106.15a4.81,4.81,0,0,0,2.21,2.94,10.52,10.52,0,0,0,3.61,1.4,25.15,25.15,0,0,0,7.84.18,52.41,52.41,0,0,0,7.72-1.61c2.54-.68,5.07-1.47,7.71-2a.32.32,0,0,1,.21.6,36.66,36.66,0,0,1-7.53,2.87c-1.31.35-2.63.63-4,.87a39.44,39.44,0,0,1-4.05.43,30.13,30.13,0,0,1-8.09-.67,12.06,12.06,0,0,1-3.79-1.56,5.74,5.74,0,0,1-2.51-3.29h0a.33.33,0,0,1,.63-.16Z"/><path class="cls-2" d="M18.12,107.4a17.81,17.81,0,0,0,5.45-.33c.9-.18,1.78-.39,2.67-.53a8.74,8.74,0,0,1,2.76-.12.36.36,0,0,1,.3.39.38.38,0,0,1-.15.24,6.12,6.12,0,0,1-2.66,1,15.54,15.54,0,0,1-2.81.17c-1.89,0-3.74-.13-5.6-.17a.32.32,0,1,1,0-.64Z"/><path class="cls-2" d="M95.86,45.8a14.25,14.25,0,0,0-10.11,2.81,12.82,12.82,0,0,0-3.27,4,15.08,15.08,0,0,0-1.56,4.92.33.33,0,0,1-.37.28.35.35,0,0,1-.28-.24,7.92,7.92,0,0,1,.88-5.67,11.36,11.36,0,0,1,3.93-4.21A18.81,18.81,0,0,1,95.9,45.15a.33.33,0,0,1,0,.65Z"/><path class="cls-2" d="M92.59,49.31A5.38,5.38,0,0,0,89,50.9a19,19,0,0,0-1.28,1.43,7.79,7.79,0,0,1-1.41,1.4h0a.35.35,0,0,1-.5-.08.31.31,0,0,1-.07-.2,3.06,3.06,0,0,1,.83-2.11A5.88,5.88,0,0,1,88.37,50a13.74,13.74,0,0,1,4.17-1.3.32.32,0,0,1,.36.28.31.31,0,0,1-.27.36Z"/><path class="cls-2" d="M60.42,56.68a12,12,0,0,0-8.07,1.68,13.38,13.38,0,0,0-3,2.68A25.06,25.06,0,0,0,47,64.42h0a.33.33,0,0,1-.45.12.31.31,0,0,1-.16-.3,6.87,6.87,0,0,1,1.76-4.17,10.31,10.31,0,0,1,3.64-2.72A17.58,17.58,0,0,1,60.49,56a.33.33,0,0,1,.3.35.32.32,0,0,1-.35.29Z"/><path class="cls-2" d="M57.79,60a6.7,6.7,0,0,0-3.31,1c-.5.29-1,.62-1.47.88a3.84,3.84,0,0,1-1.68.55h0a.37.37,0,0,1-.4-.35A.26.26,0,0,1,51,62a2.73,2.73,0,0,1,1.34-1.36A6.28,6.28,0,0,1,54.07,60c1.25-.23,2.45-.41,3.66-.6a.34.34,0,0,1,.37.27.32.32,0,0,1-.27.37Z"/><path class="cls-2" d="M17.21,81.85a6.15,6.15,0,0,0-3.32,3.81,12.45,12.45,0,0,0-.52,2.45c-.09.82-.12,1.61-.28,2.53v0a.34.34,0,0,1-.4.28.33.33,0,0,1-.22-.14,4.1,4.1,0,0,1-.6-2.87,6.87,6.87,0,0,1,1-2.76,11,11,0,0,1,4.08-3.9.32.32,0,1,1,.31.57Z"/><path class="cls-2" d="M17.66,84.71a2.2,2.2,0,0,0-1,1.51,6.21,6.21,0,0,1-.21.85,1.25,1.25,0,0,1-.66.73l0,0a.49.49,0,0,1-.61-.13,1.14,1.14,0,0,1-.13-1.15,2.64,2.64,0,0,1,.64-.91c.56-.5,1.07-.93,1.56-1.42a.33.33,0,1,1,.47.45Z"/><path class="cls-2" d="M35.86,66.68a5.28,5.28,0,0,0-3.29,2c-.42.49-.75,1-1.11,1.52a7,7,0,0,1-1.24,1.51h0a.36.36,0,0,1-.51,0,.34.34,0,0,1-.09-.19,3.05,3.05,0,0,1,.6-2.14,6,6,0,0,1,1.6-1.54,14.26,14.26,0,0,1,3.92-1.73.31.31,0,0,1,.39.22.32.32,0,0,1-.22.4Z"/><path class="cls-2" d="M60,119a2.27,2.27,0,0,0,1.81.4,2.37,2.37,0,0,0,1.53-1.07c.71-1.07.46-2.69-.63-3.05a2.39,2.39,0,0,0-3,.6,3,3,0,0,0-.47,1.51,2.47,2.47,0,0,0,.15.88A2,2,0,0,0,60,119Zm-.38.54a3.62,3.62,0,0,1-1.52-1.94,2.93,2.93,0,0,1,.39-2.6,3.19,3.19,0,0,1,2.32-1.35,4,4,0,0,1,2.47.61,2.7,2.7,0,0,1,.93.94,2.82,2.82,0,0,1,.37,1.23,3.42,3.42,0,0,1-.68,2.29A3.23,3.23,0,0,1,59.66,119.58Z"/><path class="cls-2" d="M71.89,116.74a1.42,1.42,0,0,0,.41-1.13,1.32,1.32,0,0,0-.61-1,2.45,2.45,0,0,0-.61-.28.79.79,0,0,0-.52,0,1.59,1.59,0,0,0-.89.65,1,1,0,0,0,.23,1.58,3.08,3.08,0,0,0,.89.44A1.12,1.12,0,0,0,71.89,116.74Zm.48.45a2.83,2.83,0,0,1-1.52,1,2.2,2.2,0,0,1-1.89-.42,2.4,2.4,0,0,1-.67-.78,2.11,2.11,0,0,1-.3-1,2.45,2.45,0,0,1,.82-1.79,2.61,2.61,0,0,1,1.66-.73,1.82,1.82,0,0,1,.93.21,4.33,4.33,0,0,1,.69.43,2,2,0,0,1,.78,1.51A2.32,2.32,0,0,1,72.37,117.19Z"/><path class="cls-2" d="M66.55,123.09a1,1,0,0,0,1.11,1,.89.89,0,0,0,.76-1.07.83.83,0,0,0-.8-.59,1.63,1.63,0,0,0-1.06.68l-.06.1a.35.35,0,0,1-.49.07.29.29,0,0,1-.1-.12,1.45,1.45,0,0,1,.19-1.48,1.89,1.89,0,0,1,1.39-.79,1.94,1.94,0,0,1,1.55.61,2.06,2.06,0,0,1,.55,1.45,1.93,1.93,0,0,1-1.89,1.83,1.87,1.87,0,0,1-1.81-1.66h0a.33.33,0,0,1,.29-.37.33.33,0,0,1,.37.28Z"/><path class="cls-1" d="M72.64,132.32a2.42,2.42,0,1,0,2.07-2.72A2.41,2.41,0,0,0,72.64,132.32Z"/><path class="cls-1" d="M81.28,140a1.49,1.49,0,1,0,1.28-1.68A1.49,1.49,0,0,0,81.28,140Z"/><path class="cls-1" d="M73.44,143.83a1.17,1.17,0,1,0,1-1.32A1.17,1.17,0,0,0,73.44,143.83Z"/><path class="cls-2" d="M116.57,234.72a3.3,3.3,0,0,0,1.17,2.45,3,3,0,0,0,2.59.68,6.51,6.51,0,0,0,1.39-.47,2.4,2.4,0,0,0,1-.79,3.71,3.71,0,0,0,.55-2.53,3,3,0,0,0-1-2.1,2.13,2.13,0,0,0-.44-.26,2.6,2.6,0,0,0-.56-.17,2.83,2.83,0,0,0-1.16,0,5,5,0,0,0-2.25.93,3.32,3.32,0,0,0-.88,1A3.08,3.08,0,0,0,116.57,234.72Zm-.89,0a5.38,5.38,0,0,1,.9-3.43,4.51,4.51,0,0,1,3.19-1.91,4.77,4.77,0,0,1,2,.12,5.89,5.89,0,0,1,.91.35,3.42,3.42,0,0,1,.87.61,4,4,0,0,1,1,1.68,5,5,0,0,1,.29,1.83,5.26,5.26,0,0,1-1.21,3.35,3.45,3.45,0,0,1-1.53,1,9.15,9.15,0,0,1-1.62.41,4,4,0,0,1-3.24-1A4.6,4.6,0,0,1,115.68,234.75Z"/><path class="cls-2" d="M116.08,210.12a1.51,1.51,0,0,0,.53,1.15,1.36,1.36,0,0,0,1.2.29,4.1,4.1,0,0,0,.66-.24.93.93,0,0,0,.41-.37,1.64,1.64,0,0,0,.18-1.14,1.08,1.08,0,0,0-1.33-1,3.43,3.43,0,0,0-1,.34A1.21,1.21,0,0,0,116.08,210.12Zm-.69,0a3.11,3.11,0,0,1,.41-1.87,2.3,2.3,0,0,1,1.71-1.08,2.63,2.63,0,0,1,1.08.07,2.4,2.4,0,0,1,1,.55,2.49,2.49,0,0,1,.71,1.94,2.85,2.85,0,0,1-.69,1.78,2.1,2.1,0,0,1-.84.53,4.3,4.3,0,0,1-.84.19,2.13,2.13,0,0,1-1.7-.54A2.5,2.5,0,0,1,115.39,210.15Z"/><path class="cls-1" d="M109.87,223a3.83,3.83,0,1,0,2.31-4.89A3.81,3.81,0,0,0,109.87,223Z"/><path class="cls-1" d="M124.68,224a2.27,2.27,0,1,0,1.36-2.9A2.27,2.27,0,0,0,124.68,224Z"/><circle class="cls-1" cx="131.44" cy="241.06" r="1.68" transform="translate(-104.34 100.37) rotate(-30.57)"/><path class="cls-2" d="M91,116.28a1.73,1.73,0,0,0,1.33.46,1.86,1.86,0,0,0,1.24-.69,1.54,1.54,0,0,0-.22-2.34,1.8,1.8,0,0,0-2.27.2,2.3,2.3,0,0,0-.48,1.1A1.42,1.42,0,0,0,91,116.28Zm-.33.38a2.76,2.76,0,0,1-1-1.59,2.24,2.24,0,0,1,.51-1.92,2.41,2.41,0,0,1,1.87-.82,3,3,0,0,1,1.8.65,2,2,0,0,1,.8,1.75,2.58,2.58,0,0,1-.7,1.66A2.45,2.45,0,0,1,90.64,116.66Z"/><path class="cls-2" d="M100.08,115.54a1.05,1.05,0,0,0,.4-.82,1,1,0,0,0-.37-.81,1.87,1.87,0,0,0-.44-.25.67.67,0,0,0-.39-.08,1.2,1.2,0,0,0-.72.42.78.78,0,0,0,0,1.2,2.36,2.36,0,0,0,.63.41A.87.87,0,0,0,100.08,115.54Zm.33.37a2.2,2.2,0,0,1-1.23.62,1.68,1.68,0,0,1-1.39-.48,1.86,1.86,0,0,1-.58-1.44,1.8,1.8,0,0,1,.77-1.28,2,2,0,0,1,1.31-.42,1.42,1.42,0,0,1,.68.24,4.06,4.06,0,0,1,.49.38,1.53,1.53,0,0,1,.45,1.2A1.78,1.78,0,0,1,100.41,115.91Z"/><path class="cls-2" d="M95.53,119.87a.8.8,0,0,0,.76.85c.41,0,.76-.46.66-.75a.63.63,0,0,0-.56-.51,1.26,1.26,0,0,0-.85.43l-.06.07a.25.25,0,0,1-.36,0,.28.28,0,0,1-.08-.11,1.31,1.31,0,0,1,1.38-1.58A1.53,1.53,0,0,1,97.84,120a1.47,1.47,0,0,1-1.58,1.22,1.41,1.41,0,0,1-1.22-1.4h0a.25.25,0,0,1,.24-.26.26.26,0,0,1,.26.25A.09.09,0,0,1,95.53,119.87Z"/><path class="cls-2" d="M108.16,51.93a1.71,1.71,0,0,0-1.4-.13,1.74,1.74,0,0,0-1,1c-.43.87-.1,2.07.76,2.23a1.82,1.82,0,0,0,2.16-.73,2.27,2.27,0,0,0,.21-1.18A1.46,1.46,0,0,0,108.16,51.93Zm.23-.45a2.79,2.79,0,0,1,1.33,1.32,2.25,2.25,0,0,1,0,2A2.42,2.42,0,0,1,108.06,56a3,3,0,0,1-1.91-.22,2,2,0,0,1-.79-.61,2.33,2.33,0,0,1-.4-.9,2.56,2.56,0,0,1,.3-1.78A2.45,2.45,0,0,1,108.39,51.48Z"/><path class="cls-2" d="M99.48,54.78a1.07,1.07,0,0,0-.2.89,1,1,0,0,0,.55.7,2.25,2.25,0,0,0,.48.15.77.77,0,0,0,.4,0,1.11,1.11,0,0,0,.6-.57.78.78,0,0,0-.32-1.16,2.28,2.28,0,0,0-.71-.25A.86.86,0,0,0,99.48,54.78Zm-.41-.28a2.11,2.11,0,0,1,1.05-.89,1.68,1.68,0,0,1,1.46.14,1.7,1.7,0,0,1,.46,2.69,2,2,0,0,1-1.18.71,1.44,1.44,0,0,1-.72-.07,4,4,0,0,1-.56-.26,1.54,1.54,0,0,1-.73-1.06A1.8,1.8,0,0,1,99.07,54.5Z"/><path class="cls-2" d="M102.88,49.51a.78.78,0,0,0-.93-.65.69.69,0,0,0-.47.88.64.64,0,0,0,.66.36,1.2,1.2,0,0,0,.73-.61l0-.09a.25.25,0,0,1,.34-.1.22.22,0,0,1,.1.09,1.31,1.31,0,0,1-1,1.86,1.51,1.51,0,0,1-1.78-1.35,1.47,1.47,0,0,1,1.25-1.56,1.44,1.44,0,0,1,1.52,1.08h0a.27.27,0,0,1-.18.31.26.26,0,0,1-.31-.19A.06.06,0,0,0,102.88,49.51Z"/><path class="cls-2" d="M13.19,100.9a1.15,1.15,0,0,0,1.69-.15c.41-.49.38-1.31-.15-1.54a1.18,1.18,0,0,0-1.49.13,1.63,1.63,0,0,0-.32.73A1,1,0,0,0,13.19,100.9Zm-.22.25a1.82,1.82,0,0,1-.65-1.05,1.48,1.48,0,0,1,.34-1.26,1.61,1.61,0,0,1,1.23-.54,2,2,0,0,1,1.18.43,1.32,1.32,0,0,1,.53,1.15,1.71,1.71,0,0,1-.46,1.1A1.63,1.63,0,0,1,13,101.15Z"/><path class="cls-2" d="M19.19,100.41a.7.7,0,0,0,0-1.07,1.58,1.58,0,0,0-.29-.17.4.4,0,0,0-.26,0,.74.74,0,0,0-.47.27.51.51,0,0,0,0,.79,1.6,1.6,0,0,0,.42.27A.57.57,0,0,0,19.19,100.41Zm.21.25a1.39,1.39,0,0,1-.81.4,1.11,1.11,0,0,1-.91-.31,1.23,1.23,0,0,1-.38-1,1.19,1.19,0,0,1,.5-.84,1.35,1.35,0,0,1,.87-.28,1,1,0,0,1,.45.16,3.14,3.14,0,0,1,.32.25A1.13,1.13,0,0,1,19.4,100.66Z"/><path class="cls-2" d="M16.19,103.26a.53.53,0,0,0,.5.56c.27,0,.5-.3.44-.49s-.26-.36-.37-.34a.84.84,0,0,0-.56.29l0,0a.18.18,0,0,1-.24,0l-.05-.07a.86.86,0,0,1,.91-1,1,1,0,0,1,.93,1.13,1,1,0,0,1-1,.81.91.91,0,0,1-.8-.93h0a.17.17,0,1,1,.33,0A0,0,0,0,1,16.19,103.26Z"/><path class="cls-2" d="M63.92,61.79a1.41,1.41,0,0,0,1.42.22,1.5,1.5,0,0,0,.87-1.15A1.19,1.19,0,0,0,66,60a1.3,1.3,0,0,0-.34-.32,1.58,1.58,0,0,0-1.38-.2A1.37,1.37,0,0,0,63.92,61.79Z"/><path class="cls-2" d="M64,61.67a1.16,1.16,0,0,0,1.69-.15A1,1,0,0,0,65.58,60a1.19,1.19,0,0,0-1.5.14,1.48,1.48,0,0,0-.31.72A1,1,0,0,0,64,61.67Zm-.21.25a1.84,1.84,0,0,1-.65-1.05,1.43,1.43,0,0,1,.33-1.26,1.66,1.66,0,0,1,1.23-.55,2,2,0,0,1,1.19.44,1.37,1.37,0,0,1,.53,1.15A1.75,1.75,0,0,1,66,61.74,1.6,1.6,0,0,1,63.82,61.92Z"/><path class="cls-2" d="M70.14,61.3a.91.91,0,0,0,.13-1.21,1.62,1.62,0,0,0-.44-.34,1,1,0,0,0-1.32,1A1,1,0,0,0,70.14,61.3Z"/><path class="cls-2" d="M70,61.18a.69.69,0,0,0,0-1.07,1.31,1.31,0,0,0-.28-.17.5.5,0,0,0-.26,0,.81.81,0,0,0-.48.27.52.52,0,0,0,0,.8,1.6,1.6,0,0,0,.42.27A.57.57,0,0,0,70,61.18Zm.22.24a1.4,1.4,0,0,1-.81.41,1.07,1.07,0,0,1-.91-.32,1.27,1.27,0,0,1-.39-.95,1.24,1.24,0,0,1,.51-.84,1.36,1.36,0,0,1,.86-.27,1,1,0,0,1,.45.15,2.6,2.6,0,0,1,.32.26A1.11,1.11,0,0,1,70.25,61.42Z"/><path class="cls-2" d="M66.88,64a.69.69,0,1,0,.89-.62.73.73,0,0,0-.89.64"/><path class="cls-2" d="M67,64a.53.53,0,0,0,.5.56c.27,0,.5-.3.43-.49s-.25-.36-.36-.34a.8.8,0,0,0-.56.28l0,0a.16.16,0,0,1-.24,0,.16.16,0,0,1,0-.07.86.86,0,0,1,.91-1,1,1,0,0,1,.93,1.14,1,1,0,0,1-1,.8.91.91,0,0,1-.8-.92h0a.16.16,0,0,1,.16-.16A.16.16,0,0,1,67,64Z"/><path class="cls-2" d="M47.81,106.52a1.38,1.38,0,0,0,.78-1.19,1.51,1.51,0,0,0-.67-1.28,1.17,1.17,0,0,0-.83-.2,1.32,1.32,0,0,0-.44.18,1.58,1.58,0,0,0-.76,1.16A1.37,1.37,0,0,0,47.81,106.52Z"/><path class="cls-2" d="M47.74,106.37a1.16,1.16,0,0,0,.57-1.6c-.27-.58-1-.9-1.46-.52a1.2,1.2,0,0,0-.51,1.42,1.63,1.63,0,0,0,.53.59A1,1,0,0,0,47.74,106.37Zm.13.3a1.87,1.87,0,0,1-1.22.15,1.46,1.46,0,0,1-1-.84,1.64,1.64,0,0,1,0-1.34,1.94,1.94,0,0,1,.89-.9,1.37,1.37,0,0,1,1.26,0,1.67,1.67,0,0,1,.8.88A1.61,1.61,0,0,1,47.87,106.67Z"/><path class="cls-2" d="M51.07,104.78a.74.74,0,0,0,.92-.24.69.69,0,1,0-.91.24"/><path class="cls-2" d="M51.14,104.63a.54.54,0,0,0,.72-.21.46.46,0,0,0-.26-.61.42.42,0,0,0-.46.19.81.81,0,0,0,0,.63l0,.06a.16.16,0,0,1-.08.22.14.14,0,0,1-.09,0,.86.86,0,0,1-.56-1.26,1,1,0,0,1,1.42-.36,1,1,0,0,1,.29,1.28.91.91,0,0,1-1.17.34h0a.17.17,0,0,1-.08-.22.16.16,0,0,1,.22-.08Z"/><path class="cls-2" d="M64.56,83a57.16,57.16,0,0,0,9.15.48c1.52,0,3-.12,4.54-.18a34.52,34.52,0,0,1,4.55,0,.32.32,0,0,1,.3.36.35.35,0,0,1-.2.28,13.45,13.45,0,0,1-4.59.88,31.4,31.4,0,0,1-4.65-.18c-3.08-.33-6.11-.76-9.17-1a.33.33,0,0,1,.05-.65Z"/><path class="cls-2" d="M113.7,64.06a1.34,1.34,0,0,0,.53,1.32,1.49,1.49,0,0,0,1.43.17,1.21,1.21,0,0,0,.64-.56,1.52,1.52,0,0,0,.1-.47,1.57,1.57,0,0,0-.52-1.27A1.37,1.37,0,0,0,113.7,64.06Z"/><path class="cls-2" d="M113.86,64.09a1.14,1.14,0,0,0,1,1.37c.63.11,1.32-.33,1.26-.9a1.2,1.2,0,0,0-.88-1.21,1.55,1.55,0,0,0-.78.1A1,1,0,0,0,113.86,64.09Zm-.33-.06a1.86,1.86,0,0,1,.58-1.08,1.46,1.46,0,0,1,1.26-.35,1.62,1.62,0,0,1,1.09.77,2,2,0,0,1,.23,1.25,1.36,1.36,0,0,1-.73,1,1.77,1.77,0,0,1-1.17.15A1.61,1.61,0,0,1,113.53,64Z"/><path class="cls-2" d="M113.27,67.71A.69.69,0,0,0,113.8,69a.71.71,0,0,0,.46-.82.73.73,0,0,0-1-.44"/><path class="cls-2" d="M113.35,67.85a.51.51,0,0,0-.23.71.45.45,0,0,0,.64.12.41.41,0,0,0,.11-.48.88.88,0,0,0-.53-.33l-.07,0a.17.17,0,0,1-.13-.2.25.25,0,0,1,0-.07.86.86,0,0,1,1.36.25A1,1,0,0,1,114,69.2a1,1,0,0,1-1.22-.48.9.9,0,0,1,.39-1.16h0a.17.17,0,0,1,.23,0,.17.17,0,0,1-.06.23Z"/><path class="cls-2" d="M102.65,284.76a119.92,119.92,0,0,0,13.48-2,89.34,89.34,0,0,0,13.06-3.74,99.93,99.93,0,0,0,12.33-5.6c4-2.14,7.8-4.52,11.65-7a.32.32,0,0,1,.38.52,59,59,0,0,1-11.32,7.77c-2,1.06-4.1,2.06-6.21,3-1.06.44-2.14.83-3.21,1.25s-2.16.76-3.24,1.13a107.91,107.91,0,0,1-13.31,3.33c-4.48.89-9,1.44-13.54,1.93a.33.33,0,0,1-.36-.29.32.32,0,0,1,.29-.35Z"/><path d="M95,321.14c.58-3.44,3.63-3.11,3.38.37-2,27.15-4.6,60.87-5.8,62-1.39,1.33-4.63.37-6.55-.37-.85-.33-1.31-1.71-1.06-3.18Z"/><path d="M68.32,305.12c2.44-1.54,3.92.52,1.64,2.29-17.78,13.82-40,30.85-41.39,30.75-1.59-.12-2.79-2.65-3.39-4.24-.27-.7.32-1.75,1.36-2.41Z"/><path d="M82.52,314.57a1.4,1.4,0,0,0-2.38-1.45c-7.57,9.52-17.54,22.31-17.2,23.18s4,2.28,5.89,2.88a1.43,1.43,0,0,0,1.72-.72Z"/><path d="M111.73,324.37l2.65,26.95a.91.91,0,0,0,1.27.75l6.06-2.57a.92.92,0,0,0,.5-1.15L113.49,324A.91.91,0,0,0,111.73,324.37Z"/><path d="M62.42,291.29l-27.05,1.42a.91.91,0,0,0-.81,1.22l2.3,6.18a.91.91,0,0,0,1.12.55l24.75-7.59A.91.91,0,0,0,62.42,291.29Z"/><path d="M125,32.92a1.4,1.4,0,0,0,2.33,1.53c7.88-9.27,18.27-21.72,18-22.6s-3.91-2.41-5.79-3.08a1.45,1.45,0,0,0-1.75.67Z"/><path d="M111.32,27.88,115,1a.92.92,0,0,0-1.06-1l-6.49,1.1a.92.92,0,0,0-.76,1l2.83,25.74A.91.91,0,0,0,111.32,27.88Z"/><path d="M138.68,46.94l26.21-6.85a.9.9,0,0,0,.54-1.36l-3.49-5.59a.9.9,0,0,0-1.21-.31L138,45.26A.91.91,0,0,0,138.68,46.94Z"/><path class="cls-2" d="M160.41,164.34c3.22,0,3.22-5,0-5s-3.22,5,0,5Z"/><path class="cls-2" d="M148,80c3.21,0,3.22-5,0-5s-3.23,5,0,5Z"/><path class="cls-2" d="M46.72,24.33c3.21,0,3.22-5,0-5s-3.22,5,0,5Z"/><path class="cls-2" d="M18.63,207.25c3.21,0,3.22-5,0-5s-3.23,5,0,5Z"/><path class="cls-2" d="M46.72,256.79c3.21,0,3.22-5,0-5s-3.22,5,0,5Z"/><path class="cls-2" d="M2.41,60c3.22,0,3.23-5,0-5s-3.22,5,0,5Z"/><path class="cls-2" d="M184.3,121.38c3.22,0,3.23-5,0-5s-3.22,5,0,5Z"/><path class="cls-2" d="M187.33,221.83c3.22,0,3.23-5,0-5s-3.22,5,0,5Z"/><path class="cls-2" d="M154.33,311.83c3.22,0,3.23-5,0-5s-3.22,5,0,5Z"/></g></g></svg>