<svg xmlns="http://www.w3.org/2000/svg" viewBox="0 0 244.88 316.58"><defs><style>.cls-1,.cls-3{fill:#fff;}.cls-1{stroke:#3c3c3b;stroke-miterlimit:10;stroke-width:1.6px;}.cls-2{fill:#feac14;}.cls-4{fill:#3c3c3b;}.cls-5{fill:#ffda00;}</style></defs><g id="Camada_2" data-name="Camada 2"><g id="OBJECTS"><path class="cls-1" d="M166.41,271.52c11,4.09,22.88,7.54,34.43,5.32a16.5,16.5,0,0,0,8.31-3.71,20.22,20.22,0,0,0,3.59-5.08A185,185,0,0,0,232,215.79c.91-4.43,1.64-9.13.09-13.38-1.37-3.76-4.35-6.68-7.42-9.24a145,145,0,0,0-19.93-13.4l-6.47,14.11a56.86,56.86,0,0,1,12.58,4.5c2.34,1.17,4.69,2.58,6.09,4.79,2.05,3.23,1.62,7.41.85,11.16-2.68,13.07-8.55,25.27-14.92,37-2.58,4.74-5.78,9.87-11,11.23a17.17,17.17,0,0,1-6.07.21A41.93,41.93,0,0,1,171.28,259Z"/><path class="cls-1" d="M134.83,102.39,44,247.4a17.44,17.44,0,0,0,3.41,23.12A280.34,280.34,0,0,0,84.5,296.28a183,183,0,0,0,47.77,19,16.64,16.64,0,0,0,19.31-9.65l66.68-157.77Z"/><path class="cls-2" d="M143.81,105.36,61.9,240.46A14,14,0,0,0,64.63,259a226.71,226.71,0,0,0,29.73,20.66,146.73,146.73,0,0,0,38.31,15.24,13.33,13.33,0,0,0,15.48-7.74c17.67-41.78,44.63-106.65,62.19-148.2Z"/><path class="cls-3" d="M224.56,153.6a8.74,8.74,0,0,1-9.45,1.69c-3-1.34-4.9-4.21-7.07-6.65s-5.22-4.69-8.42-4.07c-3.5.69-5.42,4.35-7,7.52-2.81,5.52-7.35,11.44-13.54,11.14-3.95-.18-7.44-3.13-8.93-6.8a16.36,16.36,0,0,1,.13-11.59c1-2.91,2.65-5.61,3.43-8.6a12.08,12.08,0,0,0-1.5-10c-2-2.83-5.95-4.38-9.21-3.12-2.5,1-4.32,3.36-6.92,4a5.94,5.94,0,0,1-6.79-3.39c-.38-.94-.51-2-1-2.87-1.26-2.5-4.54-3.23-7.33-3a6.61,6.61,0,0,0-4.18,1.65c-2.08,2.13-1.26,5.59-.93,8.56a10.46,10.46,0,0,1-1.39,7.2c-1.43,2-4.33,3.19-6.55,2-.74-.38-1.35-1-2.09-1.34-2.36-1.15-5.27.4-6.75,2.58s-2,4.84-2.9,7.3-2.58,4.94-5.13,5.58c-3,.73-6.11-1.56-7.05-4.47s-.06-6.16,1.53-8.78a42.92,42.92,0,0,1,6-7c4.46-4.71,8.46-10.13,10-16.42,2-8.28-.29-17.48,3.33-25.19a17.65,17.65,0,0,1,26.34-6.77c1.73,1.26,3.42,2.91,5.57,3,1.57.07,3-.73,4.46-1.37a23.71,23.71,0,0,1,18.14-.36,19.51,19.51,0,0,1,8.31,6.07c2.12,2.78,3.31,6.15,5,9.18a29.05,29.05,0,0,0,15.84,13c2.86,1,5.88,1.46,8.62,2.72a19.3,19.3,0,0,1,10.15,12.06c1.52,5.12.27,9.31-.32,14.37C226.47,145.83,228.07,150.14,224.56,153.6Z"/><path class="cls-4" d="M224.66,153.7a9,9,0,0,1-6.08,2.48,8.59,8.59,0,0,1-3.32-.55,10.41,10.41,0,0,1-2.9-1.74,48.21,48.21,0,0,1-4.6-4.8,12.72,12.72,0,0,0-5.07-3.65,5.66,5.66,0,0,0-2.93-.26,5.76,5.76,0,0,0-2.63,1.32,17.3,17.3,0,0,0-3.65,5.16c-2,3.92-4.5,7.86-8.36,10.41a10.56,10.56,0,0,1-3.16,1.4,12.41,12.41,0,0,1-1.72.32,11.36,11.36,0,0,1-1.75,0,10.55,10.55,0,0,1-6.24-2.95,12.52,12.52,0,0,1-3.55-6,16.71,16.71,0,0,1-.3-6.93,24.88,24.88,0,0,1,2.11-6.5,34.72,34.72,0,0,0,2.27-6,12.59,12.59,0,0,0,0-6,9.52,9.52,0,0,0-1.25-2.73,8,8,0,0,0-2.12-2.09,7,7,0,0,0-5.75-1.09c-1.94.54-3.53,2.15-5.51,3.32a6.81,6.81,0,0,1-3.39,1,6.71,6.71,0,0,1-3.44-1,6.25,6.25,0,0,1-2.48-2.61c-.56-1.12-.69-2.26-1.14-3.08-.86-1.68-2.95-2.4-4.95-2.49s-4.29.25-5.41,1.58-1.15,3.51-.91,5.63c.11,1.07.3,2.18.32,3.35a12.83,12.83,0,0,1-.38,3.47,8.34,8.34,0,0,1-1.56,3.19,6.62,6.62,0,0,1-2.94,2,5.18,5.18,0,0,1-3.58,0c-1.19-.44-1.92-1.38-2.84-1.72a4,4,0,0,0-2.93,0,6.59,6.59,0,0,0-2.56,1.75c-1.42,1.57-2.06,3.73-2.72,5.8a15.71,15.71,0,0,1-3,6,6.31,6.31,0,0,1-2.88,1.91,5.42,5.42,0,0,1-3.49-.15,7.35,7.35,0,0,1-4.49-5,10.87,10.87,0,0,1,.72-6.78,20.72,20.72,0,0,1,3.76-5.62c1.48-1.67,3.05-3.21,4.47-4.85a39.8,39.8,0,0,0,7.08-10.79c1.72-4,2.1-8.26,2.17-12.63s0-8.88,1.22-13.33a18.5,18.5,0,0,1,8-10.92,17.74,17.74,0,0,1,6.37-2.55,18.67,18.67,0,0,1,6.83,0,18.17,18.17,0,0,1,6.32,2.47c2,1.18,3.45,2.93,5.38,3.59a4.53,4.53,0,0,0,3-.09c1-.33,2-.86,3-1.26a23.15,23.15,0,0,1,6.5-1.58,23.88,23.88,0,0,1,13.07,2.22,20.74,20.74,0,0,1,5.51,3.88,21.93,21.93,0,0,1,3.86,5.53c1,2,1.93,4,3.08,5.77a27,27,0,0,0,4,5,28.16,28.16,0,0,0,10.76,6.78c2,.7,4.16,1.18,6.3,1.87a19.29,19.29,0,0,1,6.08,3.12A20.22,20.22,0,0,1,228,127.79a19.76,19.76,0,0,1,.31,6.72c-.23,2.22-.69,4.37-1,6.54a55.09,55.09,0,0,0-.19,6.57,11,11,0,0,1-.59,3.3A7.82,7.82,0,0,1,224.66,153.7Zm-.2-.21a7.13,7.13,0,0,0,1.72-2.7,10,10,0,0,0,.51-3.18,56.36,56.36,0,0,1,.07-6.62c.24-2.2.6-4.38.75-6.55a19,19,0,0,0-.55-6.39,19.46,19.46,0,0,0-7.05-10.36,17.46,17.46,0,0,0-5.66-2.77c-2.06-.63-4.23-1.06-6.37-1.84a29.47,29.47,0,0,1-11.32-7.27,28.93,28.93,0,0,1-4.09-5.38c-1.16-2-2-4-3-6A20.7,20.7,0,0,0,186,89.12a18.82,18.82,0,0,0-5.16-3.81A22.67,22.67,0,0,0,162,84.65c-1,.39-2,.94-3.06,1.32a5.47,5.47,0,0,1-3.51.13c-2.31-.74-3.84-2.51-5.68-3.51a17.38,17.38,0,0,0-12.28-2,17.5,17.5,0,0,0-5.76,2.45,17.24,17.24,0,0,0-4.5,4.35,17.88,17.88,0,0,0-2.64,5.66c-1.12,4.1-1,8.49-1.19,12.9a52.39,52.39,0,0,1-.58,6.69,25.43,25.43,0,0,1-1.91,6.5,40.92,40.92,0,0,1-7.52,11.08c-3,3.3-6.47,6.1-8.22,10a9.74,9.74,0,0,0-.8,6.11,6.47,6.47,0,0,0,3.85,4.52,4.65,4.65,0,0,0,3,.18,5.54,5.54,0,0,0,2.58-1.65,14,14,0,0,0,2.86-5.72,17,17,0,0,1,2.83-6.06,7.32,7.32,0,0,1,2.81-2,4.75,4.75,0,0,1,3.5-.08c1.16.46,1.92,1.33,2.85,1.59a4.21,4.21,0,0,0,2.88-.17,5.32,5.32,0,0,0,2.34-1.79,6.86,6.86,0,0,0,1.19-2.75,11.29,11.29,0,0,0,.2-3.08c-.06-1-.24-2.11-.39-3.22a16.45,16.45,0,0,1-.17-3.47,5.87,5.87,0,0,1,1.37-3.51,6,6,0,0,1,3.3-1.82,12.33,12.33,0,0,1,3.53-.27,9,9,0,0,1,3.47.92,5.77,5.77,0,0,1,2.65,2.61c.53,1.17.61,2.29,1,3.16a5.23,5.23,0,0,0,1.92,2.18,5.26,5.26,0,0,0,5.69,0c1.81-1,3.36-2.8,5.7-3.54a8.7,8.7,0,0,1,6.9,1,9.83,9.83,0,0,1,2.68,2.39,11.24,11.24,0,0,1,1.64,3.17,13.72,13.72,0,0,1,.33,7,30.74,30.74,0,0,1-2.39,6.37,24.14,24.14,0,0,0-2.07,6c-.84,4.06-.11,8.58,2.87,11.56a9.11,9.11,0,0,0,5.38,2.76,11.32,11.32,0,0,0,1.54,0,8.88,8.88,0,0,0,1.53-.25,9.44,9.44,0,0,0,2.85-1.26,16.88,16.88,0,0,0,4.57-4.43,36.23,36.23,0,0,0,3.31-5.59,17.86,17.86,0,0,1,3.9-5.57,7.22,7.22,0,0,1,3.22-1.58,6.87,6.87,0,0,1,3.57.33,13.66,13.66,0,0,1,5.42,4.13,53,53,0,0,0,4.28,5,8.53,8.53,0,0,0,5.78,2.43A8.37,8.37,0,0,0,224.46,153.49Z"/><path class="cls-4" d="M209.66,159.57l-3.1,7.29-3.05,7.31c-1,2.44-2.07,4.86-3.17,7.26a74.44,74.44,0,0,1-3.65,7,.23.23,0,0,1-.32.08.22.22,0,0,1-.09-.27c.91-2.49,2-4.9,3.09-7.29s2.25-4.77,3.4-7.15,2.27-4.76,3.35-7.17,2.14-4.83,3.12-7.27a.23.23,0,0,1,.3-.13.23.23,0,0,1,.12.3Z"/><path class="cls-4" d="M191,195.05l-6,15.76c-2,5.25-4.05,10.5-6.13,15.73s-4.18,10.45-6.37,15.64-4.47,10.33-7,15.37a.22.22,0,0,1-.3.1.22.22,0,0,1-.11-.28c2-5.26,4.23-10.43,6.41-15.61l6.6-15.53c2.18-5.18,4.34-10.38,6.43-15.6s4.13-10.46,6.08-15.74a.22.22,0,0,1,.42.16Z"/><path class="cls-4" d="M162.86,267.54c-1.34,4-2.72,8-4.28,11.87s-3.16,7.8-4.94,11.62a110.91,110.91,0,0,1-5.85,11.23,16.22,16.22,0,0,1-4.42,4.7,9.36,9.36,0,0,1-6.2,1.68.23.23,0,0,1,0-.46,9.6,9.6,0,0,0,5.62-2,16.62,16.62,0,0,0,4.08-4.51c1.14-1.71,2.1-3.58,3.1-5.42s2-3.71,2.91-5.58c1.87-3.76,3.63-7.57,5.22-11.45s3-7.83,4.3-11.83a.22.22,0,0,1,.43.13Z"/><path class="cls-4" d="M111.13,154.35c-1.51,2.28-2.95,4.62-4.43,6.93s-2.88,4.66-4.3,7-2.85,4.68-4.33,7-3,4.59-4.69,6.76a.23.23,0,0,1-.32,0,.23.23,0,0,1-.06-.29c1.26-2.44,2.69-4.78,4.18-7.08s3-4.59,4.54-6.86,3.08-4.54,4.58-6.83,3-4.59,4.45-6.92a.23.23,0,0,1,.31-.07.23.23,0,0,1,.08.31Z"/><path class="cls-4" d="M88.85,185.31c-2.07,3.21-4,6.52-5.91,9.82s-3.71,6.69-5.56,10-3.67,6.7-5.6,10a114.15,114.15,0,0,1-6.19,9.68.22.22,0,0,1-.31,0,.23.23,0,0,1-.07-.29c1.81-3.38,3.75-6.66,5.66-10l5.81-9.89,5.85-9.87c1.93-3.3,3.93-6.56,5.94-9.82a.22.22,0,0,1,.31-.07.22.22,0,0,1,.07.31Z"/><path class="cls-4" d="M59.65,233.44C58,235.65,56.5,238,55,240.3s-2.76,4.77-4,7.23a22,22,0,0,0-2.61,7.6,8.64,8.64,0,0,0,2.42,7.19.22.22,0,0,1,0,.32.22.22,0,0,1-.28,0,6.69,6.69,0,0,1-2.67-3.36,9.35,9.35,0,0,1-.54-4.29,20.28,20.28,0,0,1,3-7.88q2.05-3.61,4.3-7.1c1.47-2.35,3-4.62,4.64-6.88a.23.23,0,0,1,.32,0,.21.21,0,0,1,0,.31Z"/><path class="cls-4" d="M124,306.91c-5.06-1.73-10.1-3.55-15-5.63s-9.83-4.27-14.63-6.66l-3.57-1.84-3.54-1.92-3.47-2-3.44-2.1a104.13,104.13,0,0,1-12.94-9.53l.4-.55c4.49,2.92,8.91,5.88,13.4,8.74l3.38,2.12L88,289.58l3.44,2,3.49,1.95c4.66,2.57,9.45,4.94,14.34,7.06s9.88,4,15,5.66Z"/><path class="cls-4" d="M132.7,301.72a166.63,166.63,0,0,1-16.64-4.45c-1.37-.45-2.72-.94-4.07-1.45s-2.67-1.1-4-1.68a40.38,40.38,0,0,1-7.48-4.32l.33-.59c2.68,1,5.24,2.27,7.82,3.46,1.29.61,2.58,1.18,3.89,1.76s2.6,1.14,3.92,1.68a81.83,81.83,0,0,0,16.36,4.93Z"/><path class="cls-4" d="M83.38,280.4a136.61,136.61,0,0,1-17-10.42,62.64,62.64,0,0,1-7.71-6.42,17.77,17.77,0,0,1-5.12-8.72l.65-.21a28.12,28.12,0,0,0,5.61,7.81c1.12,1.17,2.33,2.28,3.57,3.36S65.84,268,67.11,269a82.28,82.28,0,0,0,16.58,10.77Z"/><path class="cls-4" d="M207.43,186a76.13,76.13,0,0,1,9.11,5.73c1.44,1.06,2.86,2.17,4.23,3.34a32.53,32.53,0,0,1,3.88,3.82,14.49,14.49,0,0,1,2.72,4.87,16.11,16.11,0,0,1,.66,5.55,29.74,29.74,0,0,1-2.77,10.49l-.65-.21a72.46,72.46,0,0,0,1.83-10.36,14,14,0,0,0-2.75-9.59,27.59,27.59,0,0,0-3.54-3.89c-1.3-1.2-2.63-2.37-4-3.45a55.4,55.4,0,0,0-9-5.69Z"/><path class="cls-4" d="M223.47,229.49c-1.3,3.93-2.48,7.91-3.82,11.84s-2.67,7.86-4.2,11.73c-.79,1.93-1.6,3.85-2.5,5.74s-1.91,3.71-2.94,5.53a25.64,25.64,0,0,1-3.7,5.2,7.85,7.85,0,0,1-2.84,1.78,5,5,0,0,1-3.35,0l.19-.65a4.62,4.62,0,0,0,2.74-.41,6.42,6.42,0,0,0,2.24-1.7,36.41,36.41,0,0,0,3.35-5c1-1.77,2.05-3.56,3-5.4s1.85-3.68,2.73-5.54c1.72-3.75,3.24-7.6,4.63-11.5s2.66-7.84,3.85-11.81Z"/><path class="cls-4" d="M217,233.27c-1.32,4-2.57,7.94-3.86,11.93l-1,3c-.37,1-.76,2-1.15,2.92a29,29,0,0,1-2.95,5.55l-.62-.28a39.64,39.64,0,0,1,2.11-5.89l1.23-2.86,1.27-2.85a88.15,88.15,0,0,0,4.34-11.69Z"/><path class="cls-4" d="M193.59,272.33c-3.46-.29-6.91-.69-10.35-1.29a35.63,35.63,0,0,1-5.08-1.28,16.91,16.91,0,0,1-4.7-2.33l.28-.62a38.48,38.48,0,0,1,4.94,1.44c1.61.54,3.21,1.11,4.85,1.61a38.06,38.06,0,0,0,10.1,1.79Z"/><path class="cls-4" d="M190.77,176.05l-6.5,14.21-6.38,14.25-6.31,14.29c-2.12,4.75-4.2,9.52-6.44,14.22a.22.22,0,0,1-.29.11.23.23,0,0,1-.11-.28c1.76-4.91,3.81-9.7,5.9-14.47s4.31-9.48,6.53-14.19l6.67-14.13c2.19-4.72,4.41-9.43,6.53-14.19a.22.22,0,1,1,.4.18Z"/><path class="cls-4" d="M129.51,145.05c-2.07,3.22-4.13,6.45-6.26,9.63s-4.37,6.28-6.48,9.47c-4.2,6.39-8.17,12.93-12.17,19.46L92.7,203.24c-4,6.52-8,13.06-12.17,19.46a.22.22,0,0,1-.31.07.23.23,0,0,1-.07-.29c3.75-6.68,7.69-13.24,11.68-19.78l12.1-19.51c4.09-6.47,8.19-12.94,12.45-19.3,2.13-3.19,4.39-6.28,6.52-9.45s4.19-6.4,6.24-9.63a.22.22,0,1,1,.37.23Z"/><path class="cls-4" d="M122.81,167.12c-1.84,2.58-3.55,5.24-5.27,7.91s-3.31,5.4-4.94,8.12-3.22,5.46-4.87,8.17-3.33,5.4-5.21,8a.22.22,0,0,1-.31.05.22.22,0,0,1-.06-.28c1.43-2.83,3.06-5.55,4.7-8.27s3.35-5.38,5.08-8,3.47-5.32,5.22-8,3.52-5.29,5.3-7.91a.22.22,0,0,1,.36.24Z"/><path class="cls-5" d="M184.5,174.39c-.11,2.65-1.27,5.24-2.43,7.73-10.87,23.46-23.36,46.24-36,68.92a18.44,18.44,0,0,1-4.07,5.52c-1.78,1.45-4.35,2.11-6.06,1-2-1.35-2-4.36-1.68-6.94,1.36-10.54,5.43-20.8,9.95-30.73a354.24,354.24,0,0,1,24.82-45.42c1.39-2.15,2.87-4.35,5-5.74A6.62,6.62,0,0,1,184.5,174.39Z"/><path class="cls-5" d="M136.14,278.93a7.39,7.39,0,0,1,1,3.64,3,3,0,0,1-2.18,2.8,3.91,3.91,0,0,1-2.91-1,28.66,28.66,0,0,1-3.2-3l-8.33-8.76a7.43,7.43,0,0,1-1.58-2.12c-2.05-4.9,4.4-5.82,7.29-3.54A35.14,35.14,0,0,1,136.14,278.93Z"/><path class="cls-4" d="M67.07,242.21a63.49,63.49,0,0,1,11.6-.85A54.75,54.75,0,0,1,90.2,243a94.77,94.77,0,0,1,21.62,8.5,88.23,88.23,0,0,1,19,13.47,59.68,59.68,0,0,1,13.59,18.83.22.22,0,0,1-.11.29.23.23,0,0,1-.28-.1,71,71,0,0,0-13.9-18.29,88,88,0,0,0-18.65-13.5,92.6,92.6,0,0,0-21.36-8.75,53.94,53.94,0,0,0-11.43-1.62,57.73,57.73,0,0,0-11.52.85.22.22,0,0,1-.07-.43Z"/><path class="cls-4" d="M111.24,281c-3.73-1.4-7.43-2.93-11-4.69A117.67,117.67,0,0,1,89.7,270.6a99.52,99.52,0,0,1-9.85-6.85,71.46,71.46,0,0,1-8.77-8.18.22.22,0,0,1,0-.31.23.23,0,0,1,.29,0c3,2.61,6,5.22,9.1,7.68s6.31,4.81,9.63,7a107.83,107.83,0,0,0,10.31,6,101.78,101.78,0,0,0,11,4.7.22.22,0,0,1,.14.28.22.22,0,0,1-.28.13Z"/><path class="cls-4" d="M103.12,253.37a53.64,53.64,0,0,0-6-2.16,54.77,54.77,0,0,0-6.21-1.43q-3.14-.54-6.29-.88c-2.11-.22-4.21-.41-6.33-.69a.21.21,0,0,1-.19-.24.2.2,0,0,1,.19-.19,30.13,30.13,0,0,1,6.44.1A50.08,50.08,0,0,1,91.07,249q3.14.77,6.19,1.76c2,.63,4,1.4,6,2.19a.22.22,0,0,1,.12.29.21.21,0,0,1-.28.12Z"/><path class="cls-4" d="M97.91,255.53a24.12,24.12,0,0,0-4.59-1.08c-.78-.12-1.55-.23-2.32-.39a8.64,8.64,0,0,1-2.26-.73.23.23,0,0,1-.09-.31.21.21,0,0,1,.17-.12,6.83,6.83,0,0,1,2.39.15,18.07,18.07,0,0,1,2.29.64c1.51.51,3,1,4.54,1.42a.22.22,0,0,1-.12.43Z"/><path class="cls-4" d="M154.47,145.55a3.7,3.7,0,0,1-4.89.94,4,4,0,0,1-1.7-2.14,3.38,3.38,0,0,1-.13-1.46,3.16,3.16,0,0,1,.6-1.4,4.53,4.53,0,0,1,2.36-1.68,3.7,3.7,0,0,1,3,.44,3.36,3.36,0,0,1,1.51,2.59A4.16,4.16,0,0,1,154.47,145.55Zm-.62-.42a2.29,2.29,0,0,0,.28-1,2.7,2.7,0,0,0-.22-1,3.34,3.34,0,0,0-1.14-1.4,2.71,2.71,0,0,0-3.38.61,1.79,1.79,0,0,0-.53,1.75,2.92,2.92,0,0,0,1.15,1.74,2.76,2.76,0,0,0,2.08.5A2.66,2.66,0,0,0,153.85,145.13Z"/><path class="cls-4" d="M140,148.39a2.73,2.73,0,0,1-1.21-1.51,2.31,2.31,0,0,1,.18-1.93,4.88,4.88,0,0,1,.56-.75,2,2,0,0,1,.89-.61,3,3,0,0,1,2.07.07,2.72,2.72,0,0,1,1.64,1.54,2.65,2.65,0,0,1,.11,1.23,2.77,2.77,0,0,1-.38,1.11,2.56,2.56,0,0,1-1.82,1.25A3.3,3.3,0,0,1,140,148.39Zm.32-.68a1.3,1.3,0,0,0,1.27-.23,3.6,3.6,0,0,0,.75-.84,1.18,1.18,0,0,0-.43-1.77,1.81,1.81,0,0,0-1.22-.32,1,1,0,0,0-.54.26,3.39,3.39,0,0,0-.52.56,1.47,1.47,0,0,0-.22,1.32A1.65,1.65,0,0,0,140.28,147.71Z"/><path class="cls-4" d="M149.36,151.93a2.15,2.15,0,0,1-1.21,2.53,2.23,2.23,0,0,1-1.55,0,2.11,2.11,0,0,1-1.24-1.13,2.31,2.31,0,0,1,0-1.77,2.21,2.21,0,0,1,1.39-1.31,2.18,2.18,0,0,1,1.81.25,1.7,1.7,0,0,1,.83,1.49.39.39,0,0,1-.43.36.35.35,0,0,1-.17-.06l-.12-.07a1.87,1.87,0,0,0-1.41-.28,1,1,0,0,0-.6,1,1,1,0,0,0,1.27.81,1.17,1.17,0,0,0,.75-1.53.38.38,0,0,1,.18-.51.38.38,0,0,1,.5.18.14.14,0,0,1,0,.06Z"/><path class="cls-4" d="M152.59,208.08a4.25,4.25,0,0,1-5.08-2.6,4.58,4.58,0,0,1,0-3.12,3.71,3.71,0,0,1,.91-1.43,3.58,3.58,0,0,1,1.52-.84,5.19,5.19,0,0,1,3.32.15,4.23,4.23,0,0,1,2.44,2.54,3.85,3.85,0,0,1-.44,3.41A4.74,4.74,0,0,1,152.59,208.08Zm-.27-.81a2.68,2.68,0,0,0,1-.72,3.26,3.26,0,0,0,.5-1.05,3.89,3.89,0,0,0,0-2.07,3.13,3.13,0,0,0-3.49-1.84,2.18,2.18,0,0,0-1,.36,2.31,2.31,0,0,0-.71.85,3.28,3.28,0,0,0-.18,2.39,3.15,3.15,0,0,0,1.53,1.91A3,3,0,0,0,152.32,207.27Z"/><path class="cls-4" d="M143.47,210.24a2.43,2.43,0,0,1-2.88,1.42,2.57,2.57,0,0,1-1.4-1.09,2.49,2.49,0,0,1-.32-1.91A2.66,2.66,0,0,1,140.1,207a2.52,2.52,0,0,1,2.17-.19,2.43,2.43,0,0,1,1.46,1.5,1.94,1.94,0,0,1-.3,1.93.45.45,0,0,1-.64,0,.42.42,0,0,1-.11-.18l-.06-.14a2.15,2.15,0,0,0-1.08-1.26,1.12,1.12,0,0,0-1.22.45,1,1,0,0,0-.1.87,1.21,1.21,0,0,0,.67.76,1.34,1.34,0,0,0,1.76-.85.44.44,0,0,1,.52-.33.43.43,0,0,1,.33.51.24.24,0,0,1,0,.08Z"/><path class="cls-4" d="M99.32,236a4.4,4.4,0,0,1-1.81,2.71,3.82,3.82,0,0,1-3.21.64,8.74,8.74,0,0,1-1.51-.57,3.59,3.59,0,0,1-1.37-1.12,5,5,0,0,1-.81-3.34,4.53,4.53,0,0,1,1.65-3.23,3.15,3.15,0,0,1,.9-.49,4.51,4.51,0,0,1,.91-.24,4.58,4.58,0,0,1,1.88.08,4.34,4.34,0,0,1,2.86,2.17A5.13,5.13,0,0,1,99.32,236Zm-.86-.13a2.84,2.84,0,0,0-.93-2.33,4.88,4.88,0,0,0-2.06-1.13,2.7,2.7,0,0,0-1.13-.08,3.53,3.53,0,0,0-.55.1,3.07,3.07,0,0,0-.45.2,2.92,2.92,0,0,0-1.21,1.91,3.61,3.61,0,0,0,.26,2.49,2.16,2.16,0,0,0,.86.86,6.64,6.64,0,0,0,1.28.59,2.87,2.87,0,0,0,2.55-.38A3.16,3.16,0,0,0,98.46,235.89Z"/><path class="cls-4" d="M145.69,268.47a2.3,2.3,0,0,1-1,1.42,2,2,0,0,1-1.68.35,4.2,4.2,0,0,1-.78-.28,1.93,1.93,0,0,1-.75-.59,2.72,2.72,0,0,1-.48-1.78,2.47,2.47,0,0,1,.88-1.79,2.37,2.37,0,0,1,1-.42,2.6,2.6,0,0,1,1,0,2.21,2.21,0,0,1,1.53,1.22A2.87,2.87,0,0,1,145.69,268.47Zm-.65-.1a1.16,1.16,0,0,0-.53-1,3.34,3.34,0,0,0-.91-.42,1,1,0,0,0-1.39.82,1.59,1.59,0,0,0,0,1.12.85.85,0,0,0,.36.39,3.19,3.19,0,0,0,.61.31,1.31,1.31,0,0,0,1.18-.16A1.44,1.44,0,0,0,145,268.37Z"/><path class="cls-3" d="M106.11,225.38a3.69,3.69,0,1,1-1.7-4.94A3.68,3.68,0,0,1,106.11,225.38Z"/><path class="cls-3" d="M91.81,224.74a2.19,2.19,0,1,1-1-2.93A2.2,2.2,0,0,1,91.81,224.74Z"/><path class="cls-3" d="M101.81,212.84a1.62,1.62,0,1,1-.75-2.16A1.62,1.62,0,0,1,101.81,212.84Z"/><path class="cls-3" d="M146,221a3,3,0,1,1-.61-4.2A3,3,0,0,1,146,221Z"/><path class="cls-3" d="M132,224.13a1.86,1.86,0,1,1-.38-2.6A1.86,1.86,0,0,1,132,224.13Z"/><path class="cls-3" d="M138.2,233a1.46,1.46,0,1,1-.3-2A1.46,1.46,0,0,1,138.2,233Z"/><path class="cls-4" d="M214.52,118.76a46.86,46.86,0,0,1,4.25,3.13,13.79,13.79,0,0,1,3.42,4.11,12.16,12.16,0,0,1,1.24,5.25,17.89,17.89,0,0,1-.66,5.27.22.22,0,0,1-.44-.06c0-1.76.11-3.48.07-5.19a13.37,13.37,0,0,0-.92-4.94,12,12,0,0,0-3-4.1,33,33,0,0,0-4.19-3.11.22.22,0,0,1-.07-.3.24.24,0,0,1,.31-.07Z"/><path class="cls-4" d="M215.57,122.91a18,18,0,0,1,2.85,3.79,8.67,8.67,0,0,1,.87,2.25,4.73,4.73,0,0,1,0,2.42.23.23,0,0,1-.29.15.23.23,0,0,1-.15-.14,19.2,19.2,0,0,1-.56-2.2,20.89,20.89,0,0,0-.58-2.16,8.69,8.69,0,0,0-2.43-3.79.21.21,0,0,1,0-.31.22.22,0,0,1,.31,0Z"/><path class="cls-4" d="M177,158.93a10.1,10.1,0,0,1-3.15-5.13,14.62,14.62,0,0,1-.33-6.07,20.15,20.15,0,0,1,1.88-5.79,27.76,27.76,0,0,1,3.2-5.11.22.22,0,0,1,.31,0,.21.21,0,0,1,.07.26c-.82,1.84-1.79,3.57-2.66,5.33a25.28,25.28,0,0,0-2,5.48,12.67,12.67,0,0,0,0,5.81,9,9,0,0,0,3,4.91.22.22,0,0,1,0,.31.23.23,0,0,1-.31,0Z"/><path class="cls-4" d="M178.21,154.27a12,12,0,0,1-1-5.11,7.91,7.91,0,0,1,.5-2.63,4.7,4.7,0,0,1,1.54-2.18.23.23,0,0,1,.32,0,.29.29,0,0,1,0,.22c-.3.81-.64,1.53-.93,2.29a13.89,13.89,0,0,0-.68,2.33,7.52,7.52,0,0,0,.65,4.85.22.22,0,0,1-.39.21Z"/><path class="cls-4" d="M224.22,147.24a6.61,6.61,0,0,1-3.05,5.33,5.54,5.54,0,0,1-3.16.81,4.29,4.29,0,0,1-3-1.27.22.22,0,0,1,0-.32.24.24,0,0,1,.23,0h0a10.32,10.32,0,0,0,2.78.59,6,6,0,0,0,2.74-.46,5.08,5.08,0,0,0,3-4.65A.22.22,0,0,1,224,147a.21.21,0,0,1,.22.21Z"/><path class="cls-4" d="M144.91,84.5a13.17,13.17,0,0,0-7.78.35,14.55,14.55,0,0,0-6.38,4.44,17.33,17.33,0,0,0-3.39,7,24,24,0,0,0-.5,7.81.22.22,0,0,1-.2.24.23.23,0,0,1-.24-.16,16.11,16.11,0,0,1-.06-8.13,16.5,16.5,0,0,1,3.8-7.23A16,16,0,0,1,137,84.41a14.38,14.38,0,0,1,8-.33.22.22,0,0,1,.16.26.22.22,0,0,1-.27.16Z"/><path class="cls-4" d="M138.25,87.71a8.48,8.48,0,0,0-5.38,3.57,15.55,15.55,0,0,0-1.58,2.85c-.45,1-.82,2-1.3,3.06a.22.22,0,0,1-.29.12.24.24,0,0,1-.14-.21,8.32,8.32,0,0,1,.78-3.39,11.16,11.16,0,0,1,1.92-2.93,11.61,11.61,0,0,1,5.9-3.5.22.22,0,1,1,.1.42Z"/><path class="cls-4" d="M165.83,87.59a18.2,18.2,0,0,1,5.28-1.32,14.21,14.21,0,0,1,5.44.72,13.47,13.47,0,0,1,4.77,2.81,11.93,11.93,0,0,1,3.15,4.52.22.22,0,0,1-.39.21,28.08,28.08,0,0,0-3.45-4,15.48,15.48,0,0,0-4.35-2.84,12.25,12.25,0,0,0-5.15-1A15.32,15.32,0,0,0,166,88a.22.22,0,1,1-.17-.41Z"/><path class="cls-4" d="M171.29,89.6a13.58,13.58,0,0,1,3.62.43,6,6,0,0,1,1.7.76,3.08,3.08,0,0,1,1.22,1.42.25.25,0,0,1-.14.31.23.23,0,0,1-.18,0h0a8.1,8.1,0,0,1-1.48-.86c-.46-.31-.91-.62-1.41-.89a5.68,5.68,0,0,0-3.31-.72.21.21,0,0,1-.24-.19.22.22,0,0,1,.2-.24Z"/><path class="cls-4" d="M109.76,149a6.66,6.66,0,0,1-2.5-3.34,8.31,8.31,0,0,1-.38-4.2,9.12,9.12,0,0,1,1.72-3.91,8.69,8.69,0,0,1,3.23-2.7.21.21,0,0,1,.29.11.23.23,0,0,1,0,.25,33.2,33.2,0,0,0-2.66,3,10.54,10.54,0,0,0-1.78,3.46,7,7,0,0,0,.06,3.89,5.7,5.7,0,0,0,2.3,3.12.21.21,0,0,1,.08.3.22.22,0,0,1-.3.07Z"/><path class="cls-4" d="M110.26,145a8,8,0,0,1-.46-2.64,3.44,3.44,0,0,1,.29-1.37,1.8,1.8,0,0,1,1-1,.26.26,0,0,1,.32.16.17.17,0,0,1,0,.12v0a4.16,4.16,0,0,1-.39,1.13c-.15.34-.33.68-.46,1.06a3,3,0,0,0,.09,2.34.23.23,0,0,1-.09.3.23.23,0,0,1-.3-.1S110.26,145,110.26,145Z"/><path class="cls-4" d="M132.05,125.63a12.94,12.94,0,0,1,.43,5,7.76,7.76,0,0,1-.72,2.48,4.63,4.63,0,0,1-1.66,2,.22.22,0,0,1-.31-.07.28.28,0,0,1,0-.22c.34-.77.72-1.43,1.07-2.14a14.48,14.48,0,0,0,.87-2.19,7.54,7.54,0,0,0-.08-4.74.22.22,0,0,1,.13-.28.2.2,0,0,1,.28.13Z"/><path class="cls-4" d="M154.72,124.26a4.53,4.53,0,0,1-2.47-.89,2.71,2.71,0,0,1-.87-1.08,1.51,1.51,0,0,1,0-1.4.26.26,0,0,1,.35-.09.3.3,0,0,1,.08.08v0a5.47,5.47,0,0,1,.48,1,5.56,5.56,0,0,0,.48.94,2.11,2.11,0,0,0,1.9,1,.22.22,0,1,1,0,.44Z"/><path class="cls-4" d="M203.06,115.08a33.12,33.12,0,0,1-6.55-3.77,18.08,18.08,0,0,1-2.82-2.57,10.75,10.75,0,0,1-2.06-3.21.23.23,0,0,1,.13-.29.22.22,0,0,1,.24.06c.88.9,1.65,1.84,2.46,2.76s1.65,1.82,2.55,2.65a19.2,19.2,0,0,0,6.22,4,.22.22,0,0,1,.13.28.23.23,0,0,1-.29.13Z"/><path class="cls-4" d="M205,142.14a5.36,5.36,0,0,0-2.73-1.38,5.43,5.43,0,0,0-3,.35,10.42,10.42,0,0,0-2.59,1.6c-.8.64-1.55,1.35-2.41,2a.23.23,0,0,1-.32,0,.23.23,0,0,1,0-.24A7.7,7.7,0,0,1,196,141.9a8.11,8.11,0,0,1,3-1.54,6.87,6.87,0,0,1,3.34-.05,7,7,0,0,1,2.94,1.51.22.22,0,1,1-.29.33Z"/><path class="cls-4" d="M152.29,99.77a14.05,14.05,0,0,0,1,3,15.47,15.47,0,0,0,1.64,2.66,20.17,20.17,0,0,0,4.59,4.25c3.48,2.38,7.55,3.66,11.57,4.89s8.19,2.37,11.95,4.52a22.83,22.83,0,0,1,5.13,3.94,19,19,0,0,1,2,2.57,14.78,14.78,0,0,1,1.34,2.95.22.22,0,0,1-.41.16A19.66,19.66,0,0,0,182.5,120c-3.61-2.09-7.66-3.32-11.67-4.67s-8.1-2.77-11.61-5.26a21,21,0,0,1-4.66-4.37,14.64,14.64,0,0,1-2.7-5.8.23.23,0,0,1,.17-.26.22.22,0,0,1,.26.17Z"/><path class="cls-4" d="M166.48,109.14a19.17,19.17,0,0,1-4.94-2.41,10.73,10.73,0,0,1-2.07-1.86,6,6,0,0,1-1.32-2.46.24.24,0,0,1,.17-.27.24.24,0,0,1,.22.06c.64.66,1.16,1.34,1.72,2a21.3,21.3,0,0,0,1.78,1.91,10.31,10.31,0,0,0,4.56,2.6.22.22,0,1,1-.11.43Z"/><path class="cls-4" d="M150.55,93.9a2.26,2.26,0,0,1-3,.26,2.43,2.43,0,0,1-.91-1.4,2.11,2.11,0,0,1,0-.9,1.84,1.84,0,0,1,.45-.81,2.78,2.78,0,0,1,1.54-.88,2.27,2.27,0,0,1,1.83.46,2.08,2.08,0,0,1,.76,1.68A2.57,2.57,0,0,1,150.55,93.9Zm-.35-.29a1.37,1.37,0,0,0,.17-1.22,2.1,2.1,0,0,0-.61-.92,1.66,1.66,0,0,0-2.1.16c-.67.44-.53,1.58.16,2.16a1.64,1.64,0,0,0,1.23.43A1.59,1.59,0,0,0,150.2,93.61Z"/><path class="cls-4" d="M141.53,94.71a1.57,1.57,0,0,1-.41-2.16,2.62,2.62,0,0,1,.39-.42,1.18,1.18,0,0,1,.58-.32,1.89,1.89,0,0,1,1.26.18,1.67,1.67,0,0,1,.89,1,1.72,1.72,0,0,1-.31,1.41,1.54,1.54,0,0,1-1.19.64A2,2,0,0,1,141.53,94.71Zm.24-.39a.82.82,0,0,0,.78-.06,2.4,2.4,0,0,0,.52-.47.72.72,0,0,0-.15-1.1,1.06,1.06,0,0,0-.72-.27.77.77,0,0,0-.35.12,1.76,1.76,0,0,0-.35.31A1,1,0,0,0,141.77,94.32Z"/><path class="cls-4" d="M146.8,97.51a1,1,0,1,1-1.38-.65,1,1,0,0,1,1.38.65"/><path class="cls-4" d="M147,97.46a1.32,1.32,0,0,1-.9,1.46,1.36,1.36,0,0,1-1.63-.87,1.4,1.4,0,0,1,1-1.79A1.21,1.21,0,0,1,147,97.49a.23.23,0,0,1-.37.15l-.08-.06a1.18,1.18,0,0,0-.84-.26.6.6,0,0,0-.43.55c0,.28.34.64.72.58a.73.73,0,0,0,.56-.89.23.23,0,0,1,.14-.29.22.22,0,0,1,.29.14s0,0,0,0Z"/><path class="cls-4" d="M189,153a2.26,2.26,0,0,1-3-.44,2.39,2.39,0,0,1-.55-1.57,2,2,0,0,1,.22-.88,1.78,1.78,0,0,1,.62-.68,2.81,2.81,0,0,1,1.7-.5,2.24,2.24,0,0,1,1.67.86,2.06,2.06,0,0,1,.36,1.81A2.53,2.53,0,0,1,189,153Zm-.28-.36a1.36,1.36,0,0,0,.45-1.15,2.17,2.17,0,0,0-.38-1,1.7,1.7,0,0,0-2.09-.33,1.42,1.42,0,0,0-.34,2.15,1.7,1.7,0,0,0,1.1.7A1.6,1.6,0,0,0,188.75,152.63Z"/><path class="cls-4" d="M184.78,155.65a1.29,1.29,0,0,1-1.21,1.21,1.35,1.35,0,0,1-1.38-1.22,1.4,1.4,0,0,1,1.41-1.5,1.21,1.21,0,0,1,1.17,1.54.22.22,0,0,1-.3.13l-.1-.07-.06-.07a1.11,1.11,0,0,0-.76-.45.59.59,0,0,0-.54.44c-.11.26.19.69.57.72a.71.71,0,0,0,.74-.73.24.24,0,0,1,.21-.26.23.23,0,0,1,.25.2,0,0,0,0,1,0,0Z"/><path class="cls-4" d="M203.22,123.23a1,1,0,1,1-1.38-.65,1,1,0,0,1,1.38.65"/><path class="cls-4" d="M203.44,123.18a1.31,1.31,0,0,1-.9,1.46,1.37,1.37,0,0,1-1.63-.88,1.4,1.4,0,0,1,1-1.78,1.21,1.21,0,0,1,1.5,1.23.24.24,0,0,1-.27.2l-.11,0-.07-.06a1.17,1.17,0,0,0-.85-.26.59.59,0,0,0-.43.55c0,.28.35.64.72.58a.73.73,0,0,0,.56-.89.23.23,0,1,1,.44-.16.09.09,0,0,0,0,0Z"/><path class="cls-4" d="M207,122.3a1.55,1.55,0,0,1,.27-2.14,4.08,4.08,0,0,1,.49-.28,1.2,1.2,0,0,1,.63-.11,1.78,1.78,0,0,1,1.12.54,1.66,1.66,0,0,1,.53,1.24,1.68,1.68,0,0,1-.71,1.21,1.49,1.49,0,0,1-1.3.25A2,2,0,0,1,207,122.3Zm.35-.3a.74.74,0,0,0,.74.18,2,2,0,0,0,.62-.28.7.7,0,0,0,.2-1.07,1,1,0,0,0-.6-.46.56.56,0,0,0-.36,0,2.3,2.3,0,0,0-.42.17A.94.94,0,0,0,207.39,122Z"/><path class="cls-4" d="M209.25,127.8a1.29,1.29,0,0,1-1.28,1.1,1.34,1.34,0,0,1-1.26-1.3,1.37,1.37,0,0,1,1.49-1.36,1.19,1.19,0,0,1,1,1.59.22.22,0,0,1-.3.11.24.24,0,0,1-.09-.08l-.05-.07a1.12,1.12,0,0,0-.71-.5.58.58,0,0,0-.57.38.63.63,0,0,0,.5.76.72.72,0,0,0,.79-.66.23.23,0,0,1,.22-.24.23.23,0,0,1,.23.22v0Z"/><path class="cls-4" d="M210.38,145.09a1,1,0,1,1-1.38-.65,1,1,0,0,1,1.38.67"/><path class="cls-4" d="M210.6,145a1.3,1.3,0,0,1-.89,1.46,1.37,1.37,0,0,1-1.63-.88,1.4,1.4,0,0,1,1-1.78,1.21,1.21,0,0,1,1.5,1.23.24.24,0,0,1-.26.2.28.28,0,0,1-.11-.05l-.08-.06a1.14,1.14,0,0,0-.84-.26.59.59,0,0,0-.43.55c0,.28.34.64.72.58a.73.73,0,0,0,.56-.89.23.23,0,0,1,.14-.3.23.23,0,0,1,.29.14.09.09,0,0,1,0,.05Z"/><path class="cls-4" d="M216.74,147.75a2.25,2.25,0,0,1-2.29,1.95,2.29,2.29,0,0,1-2.12-2.3,2.32,2.32,0,0,1,2.5-2.22,2.15,2.15,0,0,1,1.88,2.62.23.23,0,0,1-.44,0v0a2,2,0,0,0-1.56-1.52,1.53,1.53,0,0,0-1.57,1.24,1.58,1.58,0,0,0,1.36,1.76,1.68,1.68,0,0,0,1.8-1.52.22.22,0,0,1,.23-.21.22.22,0,0,1,.22.23Z"/><path class="cls-4" d="M120.52,130.45a1,1,0,1,1,.4-1.44,1,1,0,0,1-.43,1.44"/><path class="cls-4" d="M120.61,130.66a1.28,1.28,0,0,1-1.56-.63,1.32,1.32,0,0,1,.57-1.71,1.37,1.37,0,0,1,1.89.69,1.18,1.18,0,0,1-.93,1.65.24.24,0,0,1-.24-.22.24.24,0,0,1,0-.12l0-.08a1.12,1.12,0,0,0,.11-.86.58.58,0,0,0-.6-.32.61.61,0,0,0-.43.79.7.7,0,0,0,.94.39.23.23,0,0,1,.23.4h0Z"/><path class="cls-4" d="M121.75,126.37a2.22,2.22,0,0,1-.76-2.88,2.38,2.38,0,0,1,1.21-1.11,2.1,2.1,0,0,1,.87-.14,1.89,1.89,0,0,1,.86.31,2.71,2.71,0,0,1,1.1,1.34,2.19,2.19,0,0,1-.14,1.83,2,2,0,0,1-1.49,1A2.52,2.52,0,0,1,121.75,126.37ZM122,126a1.33,1.33,0,0,0,1.2,0,2,2,0,0,0,.79-.74,1.64,1.64,0,0,0-.5-2c-.55-.57-1.62-.24-2.07.52a1.62,1.62,0,0,0-.21,1.25A1.59,1.59,0,0,0,122,126Z"/></g><g id="BACKGROUND"><path d="M114.09,68.12c2.79,2.09,1.11,4.65-1.88,2.84-23.28-14.09-52.1-31.8-52.59-33.4-.56-1.84,1.77-4.29,3.31-5.66.68-.61,2.12-.39,3.31.5Z"/><path d="M140.5,51.63c.26,2.88-2.25,3.25-2.79.42-4.2-22.13-9.25-49.66-8.53-50.85C130-.16,132.8-.08,134.5.1c.75.09,1.41,1.09,1.52,2.32Z"/><path d="M125.62,60A1.4,1.4,0,0,0,128,58.51c-5-11.07-11.88-25.77-12.81-25.86-1.09-.1-3.84,2.51-5.25,3.93a1.43,1.43,0,0,0-.13,1.86Z"/><path d="M103.61,81.52,78.4,71.61a.92.92,0,0,0-1.25.79L76.69,79a.9.9,0,0,0,.79,1l25.68,3.34A.91.91,0,0,0,103.61,81.52Z"/><path d="M155.51,52.67l11.05-24.73a.92.92,0,0,0-.73-1.28l-6.54-.76a.92.92,0,0,0-1,.74l-4.5,25.5A.91.91,0,0,0,155.51,52.67Z"/><path d="M29.24,269.46a1.4,1.4,0,0,0-.71-2.7C16.47,268.37.42,270.66.06,271.53s1.29,4.4,2.24,6.16a1.45,1.45,0,0,0,1.75.67Z"/><path d="M36,282.35,15.31,299.83a.92.92,0,0,0,.1,1.47L21,304.83a.9.9,0,0,0,1.23-.24l15.13-21A.91.91,0,0,0,36,282.35Z"/><path d="M28.45,249.87l-24-12.46a.92.92,0,0,0-1.32.65l-1.15,6.49a.91.91,0,0,0,.69,1l25.2,6A.91.91,0,0,0,28.45,249.87Z"/><path class="cls-4" d="M73.44,123.32c3.22,0,3.22-5,0-5s-3.22,5,0,5Z"/><path class="cls-4" d="M26.25,140.72c3.22,0,3.22-5,0-5s-3.22,5,0,5Z"/><path class="cls-4" d="M242.46,151.08c3.22,0,3.22-5,0-5s-3.22,5,0,5Z"/><path class="cls-4" d="M65.4,176.45c3.22,0,3.23-5,0-5s-3.22,5,0,5Z"/><path class="cls-4" d="M15.43,199.5c3.22,0,3.23-5,0-5s-3.22,5,0,5Z"/><path class="cls-4" d="M60.89,308.53c3.22,0,3.22-5,0-5s-3.22,5,0,5Z"/><path class="cls-4" d="M196.48,67.16c3.22,0,3.22-5,0-5s-3.22,5,0,5Z"/><path class="cls-4" d="M177.51,305.12c3.22,0,3.23-5,0-5s-3.22,5,0,5Z"/><path class="cls-4" d="M235.51,86.36c3.22,0,3.23-5,0-5s-3.22,5,0,5Z"/></g></g></svg>