<svg xmlns="http://www.w3.org/2000/svg" viewBox="0 0 541.19 160.22"><defs><style>.cls-1{fill:#ffbd29;}.cls-2{font-size:38px;font-family:TTSupersizeBk, "210 Supersize";}.cls-3{letter-spacing:-0.05em;}.cls-4{font-size:41px;font-family:GillSans-SemiBold, Gill Sans;font-weight:600;}</style></defs><g id="Graphics"><path d="M98.44,67.27H88.2L88,62.18A20.41,20.41,0,0,0,75,26H73c-3-9.1-11.33-14.48-20.79-14.48a22.3,22.3,0,0,0-18.15,8.83c-3,0-14.7-.84-22.87,8.61C2.41,39.18,5,54.47,14.57,61.73l-5.22,99.6a9.94,9.94,0,0,0,9.91,10.45h63a10,10,0,0,0,10-10.45l-1-22h7.14a20.32,20.32,0,0,0,20.3-20.3V87.56A20.32,20.32,0,0,0,98.44,67.27Zm-22-7.87H52.09V58a3.69,3.69,0,0,0-7.38,0V96.07a6,6,0,0,1-12.06,0V58a3.69,3.69,0,1,0-7.38,0v.66C19,57.09,14.45,53.08,13.38,45.77c-1.5-10.2,6.93-18.13,18-18h7.16c1.68-5.56,7.76-8.82,13.68-8.82,8.35,0,14.56,5.76,14.56,14.47H75a13,13,0,0,1,1.46,26Zm26.92,59.65A4.94,4.94,0,0,1,98.44,124h-7.8L88.87,82.64h9.57a4.94,4.94,0,0,1,4.93,4.92Z" transform="translate(-5.82 -11.56)"/><path class="cls-1" d="M21.54,157.25H79.69L75.91,69.42H56.79V93.81a18.3,18.3,0,0,1-32.53,11.52Z" transform="translate(-5.82 -11.56)"/><text class="cls-2" transform="translate(132.47 87.54)">DELIVE<tspan class="cls-3" x="164.08" y="0">R</tspan><tspan x="193.34" y="0">Y DRINKS</tspan></text><text class="cls-4" transform="translate(132.47 134.09)">pediu chegou</text></g></svg>