<svg id="Camada_1" data-name="Camada 1" xmlns="http://www.w3.org/2000/svg" viewBox="0 0 2880.34 767.23"><path d="M1303.3,129.5c-7.6,1.3-14.5,2.6-15.4,2.9-2.5,1,.2,3.3,4.7,4.1,2.1.4,4.6,1.5,5.5,2.6,2.7,2.9.4,4.9-5.7,4.9-4.8,0-10.8,2.2-10.8,3.9,0,.5,1,1.5,2.3,2.4,3.7,2.5.8,4.1-8.1,4.5-6.2.3-8.1.1-9.1-1.2-1.2-1.4-.8-1.8,2.5-3.3l3.9-1.7-11.5-1c-12.1-.9-26.1.1-31.2,2.4l-2.7,1.3,2.5,3.2c1.4,1.9,2.1,3.6,1.5,3.9a96.61,96.61,0,0,1-11.3,2.2,153.92,153.92,0,0,0-17.8,4c-4.2,1.3-9.6,2.4-12.1,2.4-3.5,0-5.6.7-8.8,3-6.8,5-8.3,5.3-29.6,5.4-19.2.2-47.5,2.8-50.6,4.7-.8.5-1.3,2.4-1.2,4.8.1,2.6-.3,4.1-1,4.2s-7,.4-14.2.8c-12.9.6-12.9.6-14.5,3.4a49.58,49.58,0,0,1-5.7,7.3c-4.8,4.9-5.6,9.1-2.7,13.3q1.65,2.25.6,3c-2.6,1.6-3.2,6-1.6,13.1,1.6,6.9,1.8,7.2,6.9,10.4a23.66,23.66,0,0,1,8.5,9.2,131.56,131.56,0,0,0,10.1,14.6c3.7,4.8,7.8,10.3,9.1,12.3s8.2,7.9,16.8,14.2c8,5.9,17.9,13.5,21.9,17,7.6,6.5,16.2,10.3,23.2,10.3,2.3,0,11.4-1.8,12.7-2.6a8.53,8.53,0,0,0-.7-2.6,5.6,5.6,0,0,1-.3-3.5c.8-1.2,24.4-7.9,30.7-8.7,2.2-.3,13.7-1.3,25.5-2.1,27.9-2,66.1-5.4,67.9-6,2-.8,38.9-2.9,49.6-3,10.2,0,14.5.9,14.5,3,0,1.9-7.9,8.1-19.3,15.1-5.1,3.1-12.3,8-16.2,10.9s-10.3,7.4-14.4,10c-6.3,4.1-7.6,5.5-9.7,10.1l-2.4,5.4h-5c-4.5,0-5.4.4-8.1,3.4a62.91,62.91,0,0,1-9.9,8.2c-3.8,2.6-7.2,5.6-7.6,6.7s-3,3-5.8,4.3c-7.7,3.5-8.9,5.2-8.1,11.1.6,4.3.6,4.6-.7,2.9-1.7-2.2-3.8-1.4-3.8,1.3s2.3,4.4,3.8,2.9c1.8-1.8,1.5,1.6-.4,5.5-3.8,7.6-10.6,11.7-15.8,9.8-1.7-.7-2.6-1.8-2.6-3.3,0-3.7-1.6-5.5-3.7-4.2-1.3.9-1.8,2.4-1.8,6v4.9l-10.5.5c-12.2.6-13.5,1.2-21.8,10.1-5.3,5.7-6.2,6.2-15.5,8.3-1.6.4-3.6,2.1-5,4.2-1.5,2.3-4.2,4.5-8.5,6.5-7,3.4-9.2,6.5-9.2,12.8,0,4.3-2.6,6.9-5.6,5.7-1.9-.7-8.2,1.9-11.1,4.6a10.51,10.51,0,0,0-2.8,4.9c-.7,3.3-4.2,6.3-9,7.9-2.1.7-5.4,3.5-8.9,7.6-5.3,6.2-5.6,6.9-5.6,11.9,0,6.4-1.3,8.1-7.2,9-8.7,1.2-13.8,2.7-16.3,4.7-3.2,2.5-3.1,3.3.5,7.5,5.7,6.4,3.4,8.4-6.5,5.8-7-1.9-12.5-1.6-17.9,1.1-4.6,2.4-6.4,4.2-11.1,11.4-5.4,8.3-15.9,19.1-21,21.8-4.4,2.2-12.1,10.4-23.5,25.2-4,5.2-10.8,13.2-15,17.6-9.4,10-13.8,16.6-20.1,29.9-3.5,7.4-5.9,11.2-8.3,13a17.1,17.1,0,0,0-5.2,7.3c-1,2.6-4.8,10.5-8.5,17.7-4.6,8.8-7.1,14.9-7.8,19-.6,3.3-2,10.5-3.2,16-3.1,14.7-2.4,24.1,2.4,33.7a78.31,78.31,0,0,0,9.9,14.3c3.4,3.8,11.9,14.7,18.9,24.2,13.3,17.8,16.3,21.2,31.9,35.3a172,172,0,0,1,15.4,15.9c5.3,6.4,7.2,7.9,15.1,11.8a105.07,105.07,0,0,1,14.7,9c8.4,6.4,19.6,12.8,34.3,19.6,18.5,8.5,23.6,10.1,45.5,14.3,23.4,4.5,35.3,4.8,55.3,1.5,12-2,13.1-2,18.3-.5,5.4,1.5,5.5,1.5,10.7-1.1l5.3-2.7,5.5,2.8c4.3,2.2,7.1,2.8,13.9,3.2l8.5.4,4.7-4.6c6.4-6.3,10.6-6.2,18.1,0,3.9,3.3,6.7,3,11.3-1.2,6.8-6.4,16.4-9.4,30-9.4,6.8,0,10.3-.5,13.5-1.9,2.4-1.1,8.3-2.6,13.1-3.5a107.09,107.09,0,0,0,13-3.2c3.4-1.2,6.5-1.4,14.8-.9,9.7.6,11.4.4,21.5-2.4,6.1-1.6,12.3-3.4,13.8-4,4.3-1.7,24.9-5.1,30.5-5.1,6.7,0,13-2.1,20.4-6.7,10.1-6.3,13.9-7.4,29-8.4,16.1-1,25.4-3.6,35-9.9,3.4-2.2,7.8-4.2,9.7-4.5s6.6-1,10.2-1.7c5.9-.9,7.4-.8,13.5,1a58.9,58.9,0,0,1,12.4,5.8c9.9,6.5,24.9,13.3,41.9,18.8,19.2,6.3,24.6,7.3,50.6,8.6,10.5.5,23.2,1.4,28.4,2.1,10.7,1.4,28.7.7,39.9-1.6,9.3-1.8,20.8-6.4,46.2-18.5,11.3-5.3,23.6-10.8,27.5-12.1,5.3-1.8,8.3-3.7,13-8a43.6,43.6,0,0,1,12.5-8.4,169.16,169.16,0,0,0,16-8,138.36,138.36,0,0,1,16.3-7.9c8.2-3.1,16.9-8.7,20.5-13.3,1.5-1.9,6.8-5.8,11.8-8.8a145.28,145.28,0,0,0,12.2-8c4.8-4,13.2-19.2,13.2-23.8a22.63,22.63,0,0,1,1.5-7.3c2.7-6.5-.3-8.4-12.9-8.4a49.33,49.33,0,0,0-12.4,2,45.29,45.29,0,0,1-10.9,2c-3.1,0-8.4,1.6-16.6,4.9a151.3,151.3,0,0,1-18.2,6.2,125.3,125.3,0,0,0-15.6,5.1,163.3,163.3,0,0,1-21.9,6.3c-6.7,1.4-20.9,4.5-31.5,7s-20.3,4.5-21.4,4.5-6.1,1.3-11.1,3c-7,2.3-10.9,3-17.3,3a82.53,82.53,0,0,0-14.2,1.5c-3.6.9-11.1,1.5-19.1,1.5-14.3,0-16.8-.8-16.2-5.1.3-2.4.7-2.7,11.3-7.7,3.5-1.6,4.3-2.7,6-7.7,2.5-7.3,4.2-8.5,9-6.2,5.2,2.5,8.9,2.2,12.7-1.1,1.8-1.6,7.8-6,13.3-9.7a154.2,154.2,0,0,0,15.5-12.1,113.2,113.2,0,0,1,12-9.4c5.2-3.5,34.5-31.1,44.5-42,14.7-16,30-34.4,33.9-40.9,5.8-9.7,7.1-14.3,8.7-30.5,1.2-11.5,1.1-12.7-1-21.1-2.2-9-10.1-27.1-17.5-40.4-7.1-12.6-32.6-44.6-42.3-53-6.6-5.7-16.2-10.3-22.6-10.8a110.77,110.77,0,0,1-16-3.9c-28.3-9-40.5-10.9-64.2-10.1-33,1.2-58.1,6.9-101,22.8-17.4,6.5-24.5,9.7-34,15.4-6.6,4-14.7,8.6-18,10.3s-7.1,4.1-8.4,5.6-6,4.6-10.5,7.1c-16.9,9.5-30.4,21.6-39.2,35.1-7.2,11-12.6,23.5-13.4,31.1-.4,4.3-1.3,7-2.7,8.5-4,4.4-4.6,8.9-3.9,27,.6,11.9.4,17.8-.4,20.3-1,3-.9,4.5.4,8.5,1.5,4.6,1.5,5.1-.4,9.2-2.7,5.9-2.5,9.4,1,18.1,1.7,4.2,3,9.1,3,11,0,6.8,4,19.1,9.1,27.9,3.8,6.6,4.9,9.6,4.7,12-.4,4.3-.4,4.3-30.3,14-32.1,10.5-29.2,9.8-41.5,9.8-8.6,0-13.1.5-17.7,2a92.94,92.94,0,0,1-15,2.9c-12.8,1.5-26.1,3.8-31.8,5.6-7.2,2.3-22.7,4.5-32,4.6a60.37,60.37,0,0,0-15,2c-8.1,2.3-15.6,3.1-58.5,6-20.6,1.4-41.8,2.2-61.5,2.2-27.1.1-31.6-.2-47-2.5-23.8-3.5-27-5.4-22.1-12.8a22.81,22.81,0,0,1,6.2-6.2c2.9-1.7,3.5-2.5,3-4.5-.3-1.2-.8-3.3-1.1-4.5-.4-1.8.8-3.7,5.3-8.5,5.4-5.7,6.3-6.3,10-6.3,4.1,0,7.2-1.9,7.2-4.4a19.57,19.57,0,0,0-1.1-4.4c-1.4-4,.3-9.7,3.5-11.7a37.18,37.18,0,0,1,7.4-3c6.5-2,8.3-5,9.2-15.9l.7-7.9,6.1-5.9c3.4-3.2,7.1-7.7,8.3-10,3.3-6.5,4.1-6.6,10.9-2.1a13.83,13.83,0,0,0,6.5,2.3c3.2,0,14.6-6.4,22-12.4,2.2-1.8,6.6-4.9,9.7-6.9s12.3-10.1,20.2-18.1c8.7-8.6,15.6-14.6,17.3-15,4.4-1.2,19-12.3,30.7-23.3,5.9-5.7,13-11.5,15.7-12.9a19.59,19.59,0,0,0,7.3-6.2c3.4-5.4,8.5-9.4,23.1-18.1,7.2-4.3,17.7-10.9,23.3-14.7s16.8-11,24.7-15.9,16.1-10.7,18.3-12.7a74.89,74.89,0,0,1,6.8-5.5,63.43,63.43,0,0,0,7.9-6.9,27.25,27.25,0,0,1,10.9-7.3c7.8-2.9,12.6-5.7,28.1-16.7,7.2-5,17.1-11.7,22-14.9a137.59,137.59,0,0,0,15.7-12.1c7.9-7.4,13.2-10.6,21.3-12.9,9.5-2.7,14.1-5.1,29-15.2,28.1-19.1,46.5-34.1,63.2-51.5,12.4-13,19.3-29.1,20.9-48.8.6-6.9.4-8.3-1.8-13.2a46.9,46.9,0,0,0-5.6-8.9c-1.7-1.9-4.6-6.9-6.5-11a111.8,111.8,0,0,0-10-16.2c-6.6-8.6-9.7-13.9-11.2-18.6-.8-2.8-22.7-31-28.9-37.5a117.17,117.17,0,0,0-10.7-9.1,201.18,201.18,0,0,1-17.4-15.9,144.72,144.72,0,0,0-51.5-34.2c-8.4-3.2-11-3.7-22.5-4.4-14.9-1-30.8-3.8-41.1-7.3-11-3.8-19.9-5-32.6-4.5-7.9.4-12.4,1.1-15,2.3-3.6,1.8-4,1.8-17-.9C1320.5,126.9,1318.7,126.8,1303.3,129.5ZM1145.1,306.3c1.2,1,1.4,1.6.7,2.1-1.3.8-5.2-1-5.2-2.4S1142.9,304.8,1145.1,306.3Zm20,2.9c2.6,1.2,3,2.4,1.7,4.6-.7,1-1.5,1-3.5.2-1.5-.5-3.9-1.5-5.3-2-2.2-.9-2.4-1.3-1.4-2.5C1158.1,307.7,1161.6,307.6,1165.1,309.2Zm129.3,48.2c.5,2.5-1.7,4.6-4.9,4.6-3.6,0-3.6-.9-.4-4.4C1291.8,354.7,1293.9,354.6,1294.4,357.4ZM1184.6,435c.8.5,1.2,1.2.8,1.5-.9.9-4.8-.4-4.8-1.6S1182.7,433.8,1184.6,435ZM1721,571c1.4.5,2.6,1.6,2.6,2.3,0,2.3-9.7,15.4-17.3,23.4-14.5,15.3-47.2,42.5-53.9,44.9-5.2,1.8-18.3,9.3-26.5,15a68.37,68.37,0,0,1-14,7.2,67,67,0,0,0-19.4,10.3c-1.4,1.1-6.8,3.5-12,5.4-8.6,3.2-9.5,3.3-10.6,1.8-2-2.6-1.6-5.3,2.2-13.1,4.9-10.2,12.6-20,19.5-24.7a57.66,57.66,0,0,0,10.6-9.8c2.5-3.1,5.4-5.7,6.3-5.7,2.7,0,6.1-3,6.1-5.3,0-4,3.8-8.5,13.7-16.1,15.6-12.1,35.4-21.5,53.1-25.1a226.54,226.54,0,0,0,22.5-6.6c7.8-2.7,14.3-4.9,14.4-4.9A21.45,21.45,0,0,1,1721,571Z" transform="translate(-18.65 -127.63)"/><path d="M222,145.5c-8.6,2.5-16.8,7.9-25.9,17.1-4.9,5-11.5,11.2-14.6,13.7l-5.5,4.6.4-3.1c.4-2.7.2-3-1.6-2.6-1.2.3-2.2.2-2.4-.2s-2.3-.5-4.7-.1c-4,.5-4.6,1-6.5,5.1-1.2,2.6-3,4.6-4.2,5-2.3.5-10.6,9.7-12.9,14.1-.8,1.5-4.3,4.9-7.8,7.7a166.12,166.12,0,0,0-15.8,15.8c-16.6,18.9-16.6,18.9-10.2,8.4,3.2-5.2,8.3-12.1,11.5-15.3s5.8-6.6,5.8-7.5-3.4,1.7-8.4,6.7c-5.3,5.3-8.6,7.9-9.1,7.2-.9-1.6,8.1-11.7,19.3-21.6,4.9-4.4,8.9-8.1,8.7-8.3-1.2-1.3-15.7,8.9-23.6,16.5-5.4,5.2-5.6,5.3-5.2,2.7l.5-2.9-2,2c-2.5,2.5-8.9,13.6-10.8,18.8a31.09,31.09,0,0,1-4.2,7.5,26.28,26.28,0,0,0-4,7.8,32.79,32.79,0,0,1-3.7,7.8c-3.3,4.9-7.1,18.5-9.1,32.5-.9,6.4-2.3,15.6-3.1,20.6-2.7,16-2.7,21.7-.3,27.2,1.9,4.2,2.3,4.5,3,2.8s.9-1.5.9,1.2c.1,1.7-.4,3.3-1,3.5-.8.3-.7,2.1.5,6.2,1,3.2,1.5,6,1.3,6.3s-3.1-.9-6.4-2.5c-4.5-2.3-6.9-4.5-10.6-9.5-2.6-3.5-5.8-7.7-7.1-9.2a20.32,20.32,0,0,1-3.5-6.7c-.7-2.4-2-4.2-3.1-4.5a6,6,0,0,1-2.9-3c-.7-1.4-1.5-2.3-1.8-1.9s-1.2.1-1.8-.4c-1.5-1.2-4,1.3-3.2,3.2a3.11,3.11,0,0,1-.9,2.6c-1.2,1.1-1.4,1-1.4-.4,0-1-.2-1.5-.5-1.2s-.3,1.8.1,3.3c.5,2,.9,2.4,1.6,1.3.7-.9.8-.7.3.8-.3,1.3.4,4.5,1.9,7.8,1.4,3.1,2.3,6.3,2,7.1s-.1,1.5.5,1.5,1.1.7,1.1,1.6,1.3,3.3,2.9,5.3a75.67,75.67,0,0,1,4.9,7.6,24.27,24.27,0,0,0,4.5,6.3c2.4,2.2,2.4,2.6,1.1,5.7-1.3,3.3-6.5,25.8-7.9,34.5-.6,3.5-2,5.8-6.9,11.3-4.2,4.7-6.1,7.6-6.1,9.5,0,1.7-2.5,6.1-6.8,12.1-3.7,5.1-6.7,9.8-6.7,10.4s1,2.1,2.1,3.3l2.2,2.3-3.3,9.8c-3.2,9.7-3.2,10-2.7,24.3.5,14,1.5,19.8,3.3,19.2.5-.2,1.4,1.7,2,4.1,2.4,9.3,3.6,8.6,6-3.3,1-4.9,2.2-9,2.6-9s.8-1.5.8-3.4.5-3.8,1-4.1,1,.5,1,1.9c0,3.5,1.8,4.2,2.5.9.3-1.5.9-4.1,1.3-5.7s.7,8.1.8,21.5c0,20.8.3,25.2,1.9,29.9,1.9,5.9,6.3,15.2,7.5,16,.8.5,5.3,10.9,6.5,15a76.19,76.19,0,0,0,3.7,8.8c1.6,3.4,3,7.8,3.1,9.6.1,3.3.1,3.4,2.4,1.7s3-3.1,1.2-3.1c-.8,0-1-1.7-.7-5.1s.2-4.6-.4-3.5c-1,1.8-2.8,2.2-2.8.5a8.1,8.1,0,0,1,1.9-3.5l1.8-2.3,2.2,6.5a60,60,0,0,1,2.2,8.7c0,1.8.2,1.9.7.5.6-1.6,1.6-1.2,7.6,2.8,7.6,4.9,9.5,6.9,9.6,9.8q0,1.8-1.5,1.2c-2.2-.8-2.1,14.3.1,18.5,1.9,3.8,1.1,8-2.2,11.6s-3,5.7.7,8.4c2.9,2,3.1,2.6,2.6,6.5a29.54,29.54,0,0,1-3.1,9.4c-1.5,2.8-2.4,5.5-2.1,6s2.3,1,4.3,1c3.5,0,3.9.3,6.4,5.7,3,6,2.8,7.8-.4,6.7-2-.6-2.1-.4-1.3,6.2.4,3.8.9,8.8,1,11.1a18,18,0,0,0,1,5.2c.3.6,3.7,2.7,7.5,4.6,10,5,10.3,5.5,7.8,11.1-3.5,7.9-.8,16.1,10.9,33.9,8.4,12.9,11.5,18.4,10.8,19.5-.8,1.3,1,4.5,5.5,10,7.2,8.7,7.4,9.3,5.6,14.6-1.6,4.7-1.3,12.7.6,15.1a2.3,2.3,0,0,1,.4,2.2c-.4.5,2.1,3,5.4,5.5,6.5,5,9.3,5.5,17.7,3.6,4.7-1.1,9.7.2,9.1,2.3a36.53,36.53,0,0,1-5.9,5.6c-3,2.4-5.6,5.3-5.7,6.4-.3,1.8.1,1.7,5.2-1.1s5.6-2.9,7.1-1.3c1.8,2.1,1.9,4.1.4,9.2-2.3,7.4,4,12,10.9,8.1,2.6-1.4,4.2-1.8,5.3-1.2,1.4.8,1.5,1.5.3,6a37.73,37.73,0,0,1-1.8,5.8c-.2.4.2,1.6.9,2.6,1.1,1.5,2.2,1.7,5.2,1.2,2.3-.4,3.3-.3,2.5.2-1.8,1.2-.2,2.3,7.8,5.2,6.9,2.5,13.1,2.9,21.8,1.5,4.6-.7,5.2-.6,4.6.9-.4,1.1-.1,1.6,1,1.6.8,0,2.3,1.2,3.3,2.8,2.2,3.5,3.4,4.3,5.3,3.6.8-.3,2.2.5,3.1,1.8,1.6,2.1,2.1,2.2,6.8,1.2,3.9-.8,5.4-.8,6.1.1s.3,1.7-1.4,2.8c-2.2,1.5-2.3,1.9-1.3,4.2,1,2.1,1.7,2.5,3.9,2.1,2-.4,2.6-.2,2.2.8-.3.7.3,1.7,1.3,2,1.6.7,1.5.9-.7,2.1-2.3,1.4-2.2,1.4,2.5.9,2.8-.4,8.5-1.5,12.9-2.6,7.2-1.8,8-1.8,9.6-.3,1.2,1.1,2,1.3,2.5.6.3-.6,1.7-1.1,3-1.1s5.1-1.4,8.2-3a36.39,36.39,0,0,1,10.5-3.6l4.7-.7.3,5.4c.3,4.7.6,5.4,2.5,5.7,1.7.3,2.5-.5,3.7-3.1,1.5-3.7,5-6.7,7.8-6.7a1.71,1.71,0,0,0,1.8-1.9c0-2.1,2.9-9.3,3-7.3,0,.7,2.1-.3,5-2.3,2.7-1.9,5.4-3.5,6-3.5s1-.6,1-1.4a2.26,2.26,0,0,1,1.5-1.9c.8-.4,2.8-2.5,4.6-4.9l3.1-4.3-.4,5.7-.3,5.7,2.9-2.7c2.7-2.6,2.8-2.6,2.2-.4-.6,1.9-.4,2.2,1.5,1.9,2.5-.4,3.7-2.7,3.8-7,.1-1.5.6-2.7,1.2-2.7a.55.55,0,0,1,.5.9c-.3.5.1,1.2.9,1.5,1.2.4,1.3,1,.5,2.5-1.5,3-1.1,4,.5,1.1a13.41,13.41,0,0,0,1.5-4.2c0-1,1.5-2.5,3.3-3.4a43.69,43.69,0,0,0,6.9-5c3.6-3.2,3.7-3.4,1.7-4.5-1.2-.6-1.8-1.7-1.5-2.5.7-1.7-.6-1.8-2.2-.2-1.9,1.9-1.4-.3.5-2.5,2.2-2.4,6.5-14.2,6.5-18,.1-2.1.4-2.5,1.4-1.6a6.17,6.17,0,0,1,1.7,3.2c.2,1.2.5-.5.6-3.7.1-5,.7-6.8,4-12,3.8-6.1,7.8-13.5,8-14.9a8.08,8.08,0,0,0,.1-1.6c0-.5,2.9-2.3,6.4-4.1l6.4-3.2,1.2-7a73.12,73.12,0,0,0,.8-14l-.4-7.1,4.4-1.8,4.4-1.9-.3-14.3c-.2-14-.2-14.3,2.8-20.7,3.6-7.6,6.9-12.3,14.6-20.6,3-3.3,5.9-7.2,6.2-8.6.4-1.7,1.2-2.5,2-2.2,1.6.6,3-1.7,3.9-6.5.5-2.8.1-4.2-2-7.3s-2.5-4.2-1.6-6.1c1.6-3.5,3.2-11.2,3.2-16a63.85,63.85,0,0,1,1.6-11.5c1.4-6.4,2-7.3,5.6-9.9l4.1-2.8-.7-8.5a140.6,140.6,0,0,0-2-15c-1.3-5.8-1.3-6.6.1-7.5,4.2-2.7,5.4-4.4,6.7-9.5,1.8-7.3,3.3-17.2,4.6-30,2-19.2,2-19.2,3.8-18.5,3.5,1.5,4.7,1,5-1.8.2-1.9.8-2.7,1.7-2.3,2.9,1.1,4.8-7.1,5.7-25.4.4-9.6,1.2-21.1,1.7-25.5l.8-8,.1,7.7c.1,4.3.5,7.8.8,7.8,4.8,0,3.1-26.6-3.3-51-2.6-10.4-7.8-25.9-9.9-30.2a14.55,14.55,0,0,1-1.4-5.8c0-1.6-.4-3-.8-3-1,0-4.5-7-3.9-7.7.3-.2,2.1,2.3,4.1,5.5,7.6,12.5,6.9,7.7-1-8a11.84,11.84,0,0,1-1.4-3.4c0-1.1,4.7,5.9,6,8.8a26.28,26.28,0,0,0,2,3.8,54.78,54.78,0,0,1,2.5,5.5c3.4,8.1,6.9,15.5,7.3,15.1.2-.3-1.2-4.5-3.2-9.4a100.81,100.81,0,0,1-3.6-9.7c0-1.2-3.4-8-4.5-9-1.9-1.7-6.5-9.4-6.5-10.8,0-.7-.9-2-2-3a6.51,6.51,0,0,1-2-4.5c0-4.2-5.2-11.3-14.1-19.4-4.4-4-7.9-7.8-7.9-8.6,0-1.1-.8-1.3-2.9-.9-1.6.3-3.2.3-3.6-.1a3.5,3.5,0,0,0-2.3-.7c-1.4,0-1.7-1.1-1.7-7,0-11.9-5.3-19.8-13.4-20-5.3-.1-14.4-6.2-13.6-9,.3-1.1.8-7.9,1.2-15,.7-16.5-.9-15.8-3.2,1.5-.9,6.8-1.9,12.8-2.1,13.2a1.73,1.73,0,0,1-1.9.2c-1-.4-1.2-1.2-.4-3.1,1.3-3.5,1.1-12.4-.5-15.1-1-2-1-3.1.2-6.9,1.4-4.1,1.3-5.3-.8-15.4-1.3-6-2.6-10.9-3-10.9-1.9,0-3.1,3.1-2.5,6.2.5,2.5.2,3.8-.9,4.7-1.4,1.2-1.6,1-1.6-.8,0-2.6-1.6-2.7-3-.2-.9,1.8-1.5,1.5-6.6-4a96.53,96.53,0,0,0-12.5-10.5c-3.8-2.6-6.6-5.1-6.3-5.5a1.17,1.17,0,0,0-.6-1.4c-.5-.3-1-.1-1,.5s-1.1.3-2.6-.7-2.2-1.9-1.5-2.1.6-.9-.6-1.8c-2.2-1.6-3.7-1.8-2.7-.3.8,1.4,1.6,1.7-13.6-5.8-14.3-7-18.5-8.6-22-8.5-1.4.1-5.8-.6-9.9-1.4-6.9-1.5-7.9-2.1-12.5-6.9-2.8-2.8-6.1-5.7-7.3-6.3l-2.2-1.2,3.5-5.1c3.4-5.1,3.4-5.3,1.7-7.3a63.38,63.38,0,0,1-4.1-5.6l-2.4-3.5,3.4,3.6a81.13,81.13,0,0,1,5.3,6.2l2,2.7,2.5-1.9,2.5-2-2.2-4.5c-2.6-5.2-3.2-4.4,9.2-11.6,11.4-6.7,17.5-11.6,17.5-14.1,0-2.1,5.3-5.9,8.5-5.9,1.8-.1,1.7-.4-.9-2.6-2.4-2.1-3.5-2.4-6-1.9-1.7.4-4.1.9-5.3,1.2-2,.5-2.3.1-2.3-2.8,0-4.8-1-5.8-6.7-6.8-10.7-2.1-18.6,1.2-32.8,13.4-9.8,8.3-18.8,13.7-25.2,15l-3.1.6.3-4.8c.2-2.6.5-5.7.7-6.8.2-1.5-.3-2-2.2-2.1a13.51,13.51,0,0,1-5.3-1.4c-3.9-1.9-5.9-.5-7.2,5.1-1.1,4.1-1.3,4.4-4.6,4.4a12.37,12.37,0,0,0-7.2,2.9c-4.5,3.5-16.5,18.6-18.9,23.8-.9,2.1-2.4,3.8-3.2,3.8s-2.4,1.7-3.5,3.8c-1.4,2.8-3.8,4.9-8.7,7.8a81.65,81.65,0,0,0-10.9,7.6c-2.3,2.1-4.5,3.5-4.8,3.2s-2.1,1.5-4.1,4c-3.9,4.7-7.5,7.1-5.7,3.7A18.85,18.85,0,0,1,176,230a4.09,4.09,0,0,0,1.6-2.8c0-1.9-4.8,2.5-8.2,7.5-1.3,1.8-2.7,3.3-3.2,3.3s-2.2,1.2-3.8,2.7-3,2.5-3.2,2.2c-.8-.9,7-12.8,8.1-12.4.7.2,1-.1.8-.8s.8-3.7,2.3-6.7c2.1-4.3,3.3-5.6,5.3-5.8s2.5-.8,2.2-2.5c-.3-1.5,1.1-4,4.4-7.9,17.6-21,16.6-19.6,14.9-21.3-2.2-2.3-2-3.2.2-1.2,2.4,2.2,3.1,2.1,5.8-.4,1.9-1.8,2.1-2.4,1.1-4.1-1.4-2.2-.4-3.2,16.1-17.1,5.1-4.3,9.7-8.9,10.2-10.2s2.7-3.4,5-4.8c3.1-1.8,3.7-2.6,2.6-3-1.9-.8-4.3,0-7.5,2.5s-3.9,2.3-4.3-.6C226.1,144.3,226,144.3,222,145.5Zm21.1,36.6c-.4,1.3-2.4,3.6-4.5,5.1-3.1,2.1-5,5-9,13.1-2.8,5.8-6.1,11.3-7.3,12.4-3.3,3-7.7,5.6-8.3,5-.8-.7,4.6-10.7,5.8-10.7.5,0,1.3-1.1,1.8-2.5.9-2.4,21.1-25.7,21.8-25.1C243.6,179.6,243.4,180.8,243.1,182.1Zm57.3,6.8c.3.8-.1,1.2-.9.9a2.86,2.86,0,0,1-1.7-1.7c-.3-.8.1-1.2.9-.9A2.86,2.86,0,0,1,300.4,188.9Zm-143.5.6c-.3.9-.8,1.4-1,1.1s-.2-.9.2-1.5C157,187.5,157.6,187.8,156.9,189.5Zm41.5,31c-.6,1.4-1.3,2.3-1.5,2.1-.5-.5,1.5-4.6,2.2-4.6C199.4,218,199,219.1,198.4,220.5Zm-67.6,10.7c-.7.7-1.2.8-1.2.2,0-1.4,1.2-2.6,1.9-1.9C131.7,229.8,131.4,230.6,130.8,231.2Zm-31.9,5.2c-1.2,2.3-2.2,3.3-3,2.8-1-.6-.7-1.8.9-5.1s2.3-4,3-2.7C100.4,232.4,100.1,234.1,98.9,236.4Zm91.2,5.2a81.55,81.55,0,0,1-6.4,12.9c-6.5,10.1-7,11.5-10.9,27.9l-3.9,15.9-1.1-7c-.7-4.1-.8-8.1-.3-9.9,1.7-6.1,23.8-48,24.8-47.1C192.5,234.6,191.5,237.8,190.1,241.6Zm83-4.8c-.3.3-1.1,0-1.8-.7-.9-1-.8-1.1.6-.5C272.9,235.9,273.4,236.5,273.1,236.8Zm78.3,5.1c3.1,1.5,6.2,2.7,6.7,2.5s1.5.6,2,1.8c1.1,2.6,11.3,9.1,13.2,8.4,1.5-.6,8.3,4.2,14.4,10.1,2.5,2.4,5.4,4.5,6.3,4.7a3.78,3.78,0,0,1,2.6,1.6,1.85,1.85,0,0,0,2.2.7c1.8-.7,1.2,3.7-1,7-1.3,2.1-1.3,2.3.3,2.3,1.4,0,1.5.3.5,1.4a5.82,5.82,0,0,0-.8,3.8c.4,3-2.7,3.6-4.2.8-.8-1.6-.9-3,0-5.3.7-2,.7-3.3.1-3.5a16.41,16.41,0,0,1-9.1-9c-1.6-4.8-3.5-5.4-5.2-1.7l-1.1,2.5-2.9-3.5a106.72,106.72,0,0,0-11.9-10.6c-8.6-6.9-11.4-10.2-6.6-7.9,2.1,1.1,2.1,1.1.2-.5-1.1-.8-2.8-2.2-3.8-3a5.94,5.94,0,0,0-2.8-1.5,9.49,9.49,0,0,1-3.6-2C343.4,238.3,344.6,238.5,351.4,241.9Zm2.2,5.1c0,.5-.2,1-.4,1s-.8-.5-1.1-1-.1-1,.4-1A1,1,0,0,1,353.6,247Zm-43,1c1.3.9,1.3,1.1,0,2.1s-1.3,1,.1.6c.9-.3,3.5-.1,5.8.5,3.1.8,4.1,1.5,3.6,2.6s-.2,1.2.7.5,2.7-.4,6.3,1.3c7.6,3.7,9.2,4.8,8.7,6.2s.3,1.5,2.9-.1c1.7-1,2.2-.9,3.3.5a4.59,4.59,0,0,0,3.2,1.8,7.29,7.29,0,0,1,3.9,2c4.5,4.3,6.2,5.7,10.6,8.2,6.7,3.9,7.5,5.2,5,7.7-3.2,3.2-10.3,2.9-15-.7-2-1.6-6.1-4.3-9.1-6.2-6.5-3.9-12.1-8.6-11.3-9.4.4-.3-.1-.6-1.1-.6-3.3,0-22.6-14.6-22.6-17.1C305.6,246.7,308.7,246.8,310.6,248ZM260,256.6c.3.8.2,1.2-.4.9a1.9,1.9,0,0,1-1-1.6C258.6,254.5,259.3,254.8,260,256.6Zm31.3,15c5.1,3.6,10,7.8,10.9,9.2a83.1,83.1,0,0,0,7.2,8.4c3,3.2,5,5.8,4.3,5.8-2,0-18.5-11.1-23.8-16.1-2.8-2.7-5.6-4.9-6-4.9-1,0-8.8-11.6-10-14.6-.4-1.3.8-.7,3.8,1.8C280.1,263.3,286.2,267.9,291.3,271.6Zm-29.7-1.7a22.64,22.64,0,0,0,2.1,4.5c1.1,2.1,1.8,4.1,1.5,4.4s-.6-.1-.6-.9c0-1-.2-1.1-.8-.2s-2,.1-4.8-2.2l-4.1-3.4,1-5.6,1-5.5,2.4,4.1A24.2,24.2,0,0,1,261.6,269.9Zm-152.9.2c-.5,1.3-1,1.9-1,1.2-.1-1.5,1-4.5,1.5-4C109.5,267.5,109.2,268.8,108.7,270.1Zm145.5,23.7c-.9.8-2.6-1-2.6-2.6s.2-1.5,1.5.2C253.9,292.5,254.4,293.5,254.2,293.8Zm147.9-.8c-2,2.2-3.9,2.7-3.2.7a1.85,1.85,0,0,1,1.5-1.2,2.69,2.69,0,0,0,1.8-.8C403.9,290.1,403.8,291.1,402.1,293Zm-.1,3.5c-.4.8-1.1,1.2-1.6.9s-.5-1,.3-1.5C402.6,294.7,402.6,294.8,402,296.5Zm-3.4,3.6c0,.6-.4.7-1,.4a2.34,2.34,0,0,1-1-1.6c0-.6.5-.7,1-.4A2,2,0,0,1,398.6,300.1Zm-290.3,7.1c-.3.8-.6.5-.6-.6s.2-1.7.5-1.3A2,2,0,0,1,108.3,307.2ZM282.6,320c.8.5,1.1,1,.5,1a6.8,6.8,0,0,1-2.5-1c-.8-.5-1-1-.5-1A6.21,6.21,0,0,1,282.6,320Zm8.9,3.6c1.4,1.2-1.9.1-3.5-1.2-1.8-1.4-1.8-1.4.6-.3A16.68,16.68,0,0,1,291.5,323.6Zm40,8.3c3.2.6,3.3.8,1.7,2.3a4.39,4.39,0,0,1-4.6,1.1c-1.9-.3-3-.1-3,.5s-1.1,0-2.5-1.4C318.5,329.8,319.4,329.5,331.5,331.9ZM72.1,371c-2,2.3-2.9,2.1-1.9-.4a2.48,2.48,0,0,1,2.2-1.6C73.7,369,73.6,369.3,72.1,371Zm334.7,30a5,5,0,0,0,4.1,2c3.1,0,9.7,2.7,9.7,4,0,.4.8,1,1.8,1.2,3.3.9,17.5,39,18.6,49.8.4,3.6,1.5,13,2.6,21s2.2,22.4,2.5,32c.6,16.1.5,17.4-.9,15.9-.9-.8-1.9-3.3-2.2-5.5a43.29,43.29,0,0,0-2.6-8.6c-2-4.4-2.6-5-9.7-7.9-6.4-2.7-9.2-3.3-18-3.7-22.2-1-63.4,4.7-90.6,12.5-15,4.3-32.6,11.9-35.7,15.3-1.6,1.7-2.8,3.7-2.8,4.5,0,1.3-2.3,1.5-13.9,1.5-12.1,0-14.4-.3-17.3-2-6.4-3.7-31.6-13.8-38.6-15.4-11.6-2.6-31.6-4.6-48.2-4.7l-15.5-.1,9.1-1.8c14-2.8,28.9-4,50.3-4.1,11.3-.1,21.7-.6,24.6-1.3l5-1.2-9-2.9c-5.7-1.8-8.3-3-7-3.3l2-.5-2-.8c-1.4-.5-.6-.8,2.9-.8,7.7-.1,4.3-1.8-6.6-3.2-7.8-1.1-9.3-1.5-8-2.5s.3-1.4-5.8-2.4c-15.8-2.7-46.9.5-63.8,6.4a78.45,78.45,0,0,1-10.4,3,54.08,54.08,0,0,0-10,3.6c-3.5,1.5-7.3,3.1-8.5,3.5-2.3.6-2.6.1-3.8-7a87.69,87.69,0,0,0-2.6-10.5c-1.3-4.1-2.4-11.8-3-21-.5-8-1.2-16.7-1.5-19.3-.6-4.7-.5-4.9,4.4-10.1a53.27,53.27,0,0,0,7.6-10.5,60,60,0,0,1,8.7-11.2l6.1-6.1,7.2,2.1a48.69,48.69,0,0,0,10.1,2.1c3,0,11.7,2.9,13.2,4.3.4.5.1.6-.7.3-3.7-1.1-8-1.5-8-.6a1,1,0,0,0,1.1,1,4.17,4.17,0,0,1,2.5,1.7c.9,1.3,2.7,1.8,6.6,1.9a23.05,23.05,0,0,1,8.3,1.6c3.5,1.8,27.7,5.4,45.5,6.7,13.3,1,23,2.7,23,4.1s-14.5,2.3-23.2,1.7c-4.8-.4-7.8-.3-7.8.3,0,2,41.5,1,62.5-1.4l4-.5-3.5,1.4-3.5,1.4,4.6-.1c3.4-.1,4.6-.5,4.2-1.5-.6-1.6,1.9-1.7,3.4-.2,1.3,1.3,11,.3,11.9-1.3.4-.6-.8-.7-3-.3-2,.4-3.6.3-3.6-.2s4.2-1.7,9.3-2.6,13.3-2.9,18.2-4.2c18.5-5,37.4-9.4,51.5-12.1,13.3-2.5,15.5-3.2,27-9,6.9-3.5,13.3-6.3,14.2-6.3A3.78,3.78,0,0,1,406.8,401Zm62.3,18.7c.3,1.6,1,4.4,1.5,6.4s1.2,7.9,1.5,13l.4,9.4L471,438c-.8-5.8-2.1-12.9-2.8-15.8s-1-5.2-.5-5.2S468.8,418.2,469.1,419.7Zm4.2,32.5c-.3.8-.6.5-.6-.6s.2-1.7.5-1.3A2,2,0,0,1,473.3,452.2Zm18,5c-.3.7-.5.2-.5-1.2s.2-1.9.5-1.3A5.28,5.28,0,0,1,491.3,457.2Zm-80.8,60.9a22.35,22.35,0,0,1,15.3,11.5l2.6,4.9-.7,18.5c-.7,17.8-.9,18.8-4,26.2-11.8,27.9-39.9,47.7-64.5,45.3-12.8-1.2-26.6-8-34.2-16.9-7.1-8.2-17.3-27.3-21-39.6-2.3-7.5-2.8-17-1.1-21.7.8-2.4,1-4.1.4-4-2.6.5-1.4-2.4,2.2-5.2,8.7-6.9,14-8.3,56.1-14.5l33-4.9A44.69,44.69,0,0,1,410.5,518.1ZM196.1,528.4c13,2,16.6,3.1,24.8,7.3s13.9,10.5,16.8,18.2c2.7,7.3,2.3,20.4-1,30.1-5,14.7-18.3,31.1-31.3,38.8-13.7,8.1-32.3,11.2-45.8,7.7-24.8-6.4-44-29.9-44-53.8a25.73,25.73,0,0,0-2.2-10.3c-3.4-7.4-3.2-16.5.5-22.7,4.9-8.4,16-14.1,32.3-16.7C154.2,525.8,183.9,526.6,196.1,528.4ZM259.6,553a9.05,9.05,0,0,0,4.3,2,10,10,0,0,1,3.9,1.1c2,1.1,9.1,1.9,15.3,1.9,3,0,3,0,2.6,4.7-.2,2.7-.8,5.1-1.5,5.5-.8.6-.8.8.1.8.7,0,1.5,1.7,1.9,3.7s1.3,6.4,2.1,9.7c1,4.1,1.1,6.2.4,6.9-1.5,1.5-5.7-8.4-7.2-16.8-.7-3.7-1.6-6.2-2.1-5.7-1.6,1.6,2.1,15.4,6.3,23.6,4.9,9.6,9.1,15.6,15.1,21.3,2.3,2.2,6.2,6.4,8.6,9.2s4.7,5.1,5.2,5.1,4.5,2.5,9.1,5.7c9.2,6.3,18.2,9.4,33.6,11.4,16.7,2.2,28-1.4,44.9-14.7,4.5-3.5,9.3-7.7,10.7-9.4s2.9-3,3.4-3c1,0,7.7-11.5,8.8-14.9s2.7-.5,1.9,3.3a21.11,21.11,0,0,0,.6,7.2c1.2,4.1,1,5-1.9,12.8-3.3,8.7-8.9,27-11.1,36.3-.8,3.6-1.6,5.1-2.3,4.6-2.2-1.4-6.8-1.1-7.4.4a1.48,1.48,0,0,1-1.9.9,1.61,1.61,0,0,0-1.9.4c-1.2,1.9-2.6,1-2-1.3.6-2.1.6-2.1-.9-.3a7.3,7.3,0,0,0-1.6,3c0,.6-1.6,2.4-3.5,3.9-2.5,2-4.2,2.6-5.6,2.2s-1.9-.4-1.5.4c.4.6.1,1.1-.7,1.1s-2.1,1.5-3,3.4c-1,2.1-2.4,3.6-3.8,3.8s-3.1,2.1-5.1,5.8c-3.1,5.7-6.8,10.3-6.8,8.3,0-2.5-20.8-16.1-31.3-20.4-1.9-.8-2.6-1.6-2.2-2.6.4-1.3-.3-1.5-4.5-1.1-2.8.3-5.3.2-5.6-.3-.8-1.4-8.8,2.9-12.1,6.5a15.88,15.88,0,0,0-3.9,7.3c-.5,3.1-1.5,4.5-5.5,7.5a29.29,29.29,0,0,1-10,4.7c-4.8,1-5.5.9-9.8-1.5s-4.9-2.5-10.7-1.4c-4.5.9-7.2.9-10,.1a34,34,0,0,0-7.6-1.1c-2.5,0-6.9-1.7-13.5-5.1-10-5.2-17.3-8.3-18-7.5-.3.2,0,1.3.6,2.5,1.1,2,.9,2-7.3,1.4-10.6-.7-18.1.6-37,6.8-14.6,4.8-18.6,5.7-18.6,4.1,0-.4-3.3-.8-7.3-.9-8.6-.3-7.7.6-18.7-18.1-4.4-7.3-12.1-19.7-17.2-27.4-6.6-10.1-9.2-14.9-9-16.7.2-1.4-.9-7.1-2.3-12.6a97.59,97.59,0,0,1-2.5-12c.1-1.8.2-1.7,1.5.5a12.89,12.89,0,0,1,1.5,5.5c0,1.9.3,2.5.8,1.7s2.5.7,6.6,5.3c3.4,3.9,7.4,7.2,9.9,8.3a55.44,55.44,0,0,1,9.8,6.4c6.6,5.4,7.7,6,16,9,5.6,2,8.2,2.3,21.4,2.3h15l14.3-4.8c7.8-2.7,18.3-6.9,23.3-9.3,7.6-3.9,9.8-5.6,14.5-11.2,12.4-15,15.7-25.7,15.6-51.2-.1-14.7.1-17.7,1.5-19.2C256.3,550.6,256.5,550.6,259.6,553ZM226.9,695.4c.4,1,0,1.2-1.4.9-2.2-.6-2.6-2.3-.5-2.3A2.15,2.15,0,0,1,226.9,695.4ZM211.6,711c-3.5,1.8-7,2.9-9.5,2.9h-4l4-1.9a21.7,21.7,0,0,1,7-1.9,11.8,11.8,0,0,0,4.5-1.1,5.08,5.08,0,0,1,2.5-.9C216.7,708.1,214.6,709.4,211.6,711Zm185.6,6.2c-1.8,2.6-2.2,1.7-.5-1.4.6-1.1,1.3-1.7,1.6-1.5S398.1,715.9,397.2,717.2Zm-25.8,21.2a24,24,0,0,1,.7,9.1c-1.4,10-14.3,22.4-19.1,18.4-1.9-1.5-4.3.4-13.8,10.8-10.8,12.1-14.9,17.6-20,27.4-3.9,7.6-4.6,8.4-7.5,8.7-3.6.4-8.5-2.2-14.9-8-3.6-3.3-4.5-3.7-6.2-2.8s-2.6.7-5.1-1.4c-3.9-3.3-7-3.3-19.2.3-8.1,2.4-11,3.9-17.7,8.9-15.1,11.4-21,11.7-31,1.4-3.9-4-7.3-9-11.3-16.8-5.4-10.7-8.1-14.4-9.4-13.1-.3.4-1.2-.1-1.9-1.1-1.8-2.3-1.8-10.6,0-12.1a7.7,7.7,0,0,0,2-3.4c.3-1.3,2-3.3,3.7-4.6,3.2-2.4,3.2-2.4,15.4-1.1,19.3,2,27.3.1,34.9-8.1,4.7-5.1,6.3-5.7,9.9-3.7a17.37,17.37,0,0,0,6.4,1.4,20.5,20.5,0,0,1,7.9,2.3c2.8,1.7,3.9,1.9,5,1s3-.8,7.7.1c5.1,1.1,7.3,1.1,10.8.1,2.4-.7,6-1.6,7.9-2a60.3,60.3,0,0,0,10.6-4.4c7.3-3.8,9.8-4.4,10.9-2.7.7,1.2,3.1.6,8.3-1.7,2.3-1.1,4.8-1.4,8.6-.9,4.9.5,6,.2,12.7-3.3C367.7,731.9,369.6,732.1,371.4,738.4ZM195.6,783.8c0,.7-.4,1-1,.7a3.85,3.85,0,0,1-1-2.8c0-1.8.2-1.9,1-.7A6.79,6.79,0,0,1,195.6,783.8Zm112.7,47.8a2,2,0,0,1-1.9.1c-.8-.3-.5-.6.6-.6S308.7,831.3,308.3,831.6ZM377.6,850c-2.9,3.6-5,5.5-3.5,3,.3-.6.1-1-.5-1s-.8-.5-.4-1.1c.4-.8.9-.7,1.5.2s1,.9,1.5-.6c.9-2.7,2.4-4.5,3.6-4.5C380.3,846,379.3,847.8,377.6,850Zm-5.8,6.2c-.7.7-1.2.8-1.2.2,0-1.4,1.2-2.6,1.9-1.9C372.7,854.8,372.4,855.6,371.8,856.2Z" transform="translate(-18.65 -127.63)"/><path d="M254.6,439c0,.5.9,1,2,1s2-.5,2-1-.9-1-2-1S254.6,438.4,254.6,439Z" transform="translate(-18.65 -127.63)"/><path d="M333.6,452.1c-10.3,1.1-30.1,5.8-39.5,9.4-6,2.2-17.5,8.7-17.5,9.9,0,.2,3.3-.2,7.3-1,13.5-2.5,13.3-2.5,11.7-1.4-1.2.8-1.2,1,.5,1,1.2,0,.3.8-2.4,2-5.1,2.3-5.1,3.4,0,2,1.9-.5,7-1.6,11.4-2.4,7.2-1.3,7.8-1.3,6,.1s-1.5,1.5,4.5.9c3.6-.3,16-.8,27.5-1.2,22.8-.7,44.3,1.1,48.7,4a40.48,40.48,0,0,0,6.8,3.1,74.83,74.83,0,0,1,10,4.4c5.9,3.1,16.8,6.6,17.7,5.7.3-.3-1.2-2.7-3.4-5.3-5.8-7-6.1-7.8-2.2-5.7a53,53,0,0,1,6.2,3.6c3.7,2.6,3.4,1-.5-3.3-8.7-9.3-26.9-19.2-43.3-23.4-8.2-2.2-12.9-2.7-25.5-3A238.52,238.52,0,0,0,333.6,452.1Z" transform="translate(-18.65 -127.63)"/><path d="M1959.8,194.7c-3.2,1.1-5,1.3-6.6.5s-4.3-.5-9.1.5c-3.9.8-15.3,1.6-25.5,1.9-17.9.6-18.6.7-22.5,3.2s-4.6,2.7-14.7,2.5c-11.2-.3-14.1.3-19.8,4.2-3,2-5,2.4-14.7,2.7-10.6.4-11.3.3-11.3-1.5,0-1.5-.5-1.8-2.7-1.3-1.6.2-5,.8-7.8,1.1s-5.9,1.5-7.2,2.7c-1.7,1.6-4.2,2.2-11.5,2.8a71.76,71.76,0,0,0-11.8,1.7c-1.4.6-5.9,1.4-10,1.8a89.88,89.88,0,0,0-13.1,2.1,49.73,49.73,0,0,1-10.1,1.4,67.54,67.54,0,0,0-12.4,2,140,140,0,0,1-18.2,2.8c-10.3.9-14.2,2.5-14.2,5.8,0,.7-4,4.7-8.9,8.9l-9,7.6-.7,6.6c-1,9.3,0,16.9,2.8,20.8,1.3,1.8,6.7,8.6,12.1,15.1s12.6,15.9,16,20.9c11.8,17.5,17.8,24.5,31.6,36.3,7.5,6.4,16.2,14,19.4,16.9,6.6,6,10.2,7.1,17.7,5.3a60.62,60.62,0,0,1,12.2-1.2c8.3,0,9.8-.8,9.8-5,0-5,2.6-9.5,8.2-13.9,6.5-5.2,27-15.1,44.3-21.4,18.7-6.9,27-11.4,38.5-21a56.34,56.34,0,0,1,9.8-6.3,25,25,0,0,0,8.2-6.2c3.4-4.3,10.1-8,14.4-8,2.3,0,15.2-5.1,34.2-13.5a5.64,5.64,0,0,0,3.8-4.5c1-5.3,11.1-16.6,19.1-21.5,4-2.4,5.2-3.9,6.4-7.7a34.69,34.69,0,0,1,2.2-5.3c.4-.3.2-1.9-.4-3.4-.9-2.4-.6-3.3,2.7-7.5,2-2.6,3.6-5.9,3.6-7.2,0-2.7,4-7.4,6.3-7.4a3.78,3.78,0,0,0,2.6-1.4c.9-1.1.5-2.6-1.9-6.7-1.8-3-3.9-6-4.8-6.7C2014.3,192.3,1965.5,192.6,1959.8,194.7Z" transform="translate(-18.65 -127.63)"/><path d="M496.6,422.7c0,3,2.1,8.7,3.7,10,.8.6,2.4,5.2,3.6,10.2s2.5,9.1,2.9,9.1c1.1,0,1-1.5-.7-9.4-.8-3.8-2.1-7.6-2.9-8.5a34.41,34.41,0,0,1-3.6-7.1C497.1,420.6,496.6,419.9,496.6,422.7Z" transform="translate(-18.65 -127.63)"/><path d="M2262.1,453.4c-5.3,2.3-5.5,3.5-5.5,43.1v36.4l2.4,2.8,2.4,2.8,23.4.3c25.5.4,29.8-.2,31.6-4.3,1.7-3.8,1.5-8-.7-10.6-1.9-2.3-2.5-2.4-19.3-2.9l-17.3-.5-.5-31.5c-.3-17.3-.9-32.1-1.4-32.9-1.1-1.7-6.9-4.1-9.8-4.1A19.92,19.92,0,0,0,2262.1,453.4Z" transform="translate(-18.65 -127.63)"/><path d="M2343.4,453.6a10.63,10.63,0,0,0-3.8,3.4c-.6,1.2-1,15.5-1,38.9v36.9l2.6,3.1c2.3,2.8,3.2,3.1,8.1,3.1,4.7,0,5.9-.4,8.4-2.9l2.9-2.9V496.5c0-40.4-.1-41.3-6.1-43.4C2350.2,451.6,2346.7,451.8,2343.4,453.6Z" transform="translate(-18.65 -127.63)"/><path d="M2388.1,453.1a36.05,36.05,0,0,0-4.2,3.2c-4.4,4-3.5,6.9,14.2,43.1,9,18.7,17,34.7,17.7,35.8s3.2,2.5,5.6,3.4c5.2,1.7,10.7.6,13.9-2.8s35.3-70.8,35.3-73.8c0-3.4-3-7.4-6.9-9-3.7-1.5-9.2-.6-11.4,1.8-.9.9-6.8,13.2-13.3,27.2s-12,25.8-12.4,26.3-6-10.8-12.5-25-12.8-26.8-14-28.1C2397.6,452.5,2391.1,451.4,2388.1,453.1Z" transform="translate(-18.65 -127.63)"/><path d="M2671.1,453.2a10.27,10.27,0,0,0-3.3,15.4c1.2,1.6,7.5,9.1,14,16.6l11.8,13.7v34.3l2.9,2.9c2.5,2.5,3.7,2.9,8.4,2.9,4.5,0,5.9-.4,8.1-2.6l2.6-2.7V499.3l13.9-16.1c7.6-8.8,14.1-17.2,14.5-18.6,1.5-5.9-4.4-12.6-11-12.6-3.1,0-7.6,4.3-20.1,19.3l-8.1,9.7-11.3-13.2c-6.1-7.3-12.1-13.8-13.3-14.5A9.77,9.77,0,0,0,2671.1,453.2Z" transform="translate(-18.65 -127.63)"/><path d="M2074.2,455.6l-2.6,2.7v74.6l2.4,2.8,2.4,2.8h19.9c23.1,0,29.8-1.3,39.2-7.6,9.2-6.1,14.3-15.1,16.1-28.1,3.4-24.5-9.3-43.9-31.8-48.7-2.9-.6-13.8-1.1-24.1-1.1h-18.8Zm40.9,16.8c10.2,3.1,15.1,11.9,14.3,25.5-.6,9.2-3.3,15.1-8.6,18.5-4.5,3-13.7,4.9-21.2,4.4l-5.5-.3-.3-24.8-.2-24.7h8.3A65,65,0,0,1,2115.1,472.4Z" transform="translate(-18.65 -127.63)"/><path d="M2174.5,455.9l-2.9,2.9v36.7c0,23.2.4,37.3,1,38.6,2.4,4.4,5.5,4.9,30.3,4.9,29.2,0,31.7-.7,31.7-9,0-7.8-3.4-9-25.2-9h-15.8V504.2l17.1-.4,17.1-.3,2.4-2.8c4.5-5.2,2.4-11.8-4.4-13.7-2-.5-10.1-1-17.9-1h-14.3V470h18c17.9,0,18.1,0,20.5-2.5a8.45,8.45,0,0,0,0-12l-2.4-2.5h-52.3Z" transform="translate(-18.65 -127.63)"/><path d="M2494.1,455.5l-2.5,2.4v37.9c0,36.4.1,37.9,2,40,2.9,3.1,6,3.4,32.2,3,21.3-.3,23.8-.5,25.6-2.2a9,9,0,0,0,2.2-10c-1.7-4.6-5.9-5.6-24.5-5.6h-16.5V504h14.8c20.9,0,24.2-1.3,24.2-9.2,0-7.4-3.8-8.7-24.8-8.8h-14.3l.3-7.8.3-7.7,18-.5c9.9-.3,18.7-.9,19.6-1.3,1.7-.9,3.9-4.9,3.9-7.2,0-2.7-2.2-6.3-4.7-7.4-1.5-.7-11.3-1.1-27.9-1.1h-25.5Z" transform="translate(-18.65 -127.63)"/><path d="M2580.3,454.1c-4.3,2.6-4.7,6.1-4.7,41.1,0,19.8.4,34.8,1,37,1.4,5,4.3,6.8,10.8,6.8,4.3,0,5.8-.5,7.7-2.5,2.4-2.3,2.5-2.9,2.5-16V507h5.4a34,34,0,0,1,7.1.6c.9.4,5.8,6.8,11,14.3s10.2,14.4,11.3,15.4c6.3,5.7,18.2,1,18.2-7.2,0-4.3-13.3-22.2-17.9-24.1l-3-1.2,5.2-2.7c10.2-5.3,15.1-16.2,12.8-28.6-1.5-8.3-5.2-13.3-12.6-17l-6-3-23.5-.3C2589.8,453.1,2581.5,453.3,2580.3,454.1Zm41.8,17.3c6.5,2.7,7,12.3.8,16.3-2.2,1.5-4.8,1.8-13.8,1.8h-11l-.3-9.8-.3-9.7h10.6C2615,470,2619.9,470.5,2622.1,471.4Z" transform="translate(-18.65 -127.63)"/><path d="M2856.4,591c-16.1,2.7-26.8,13.7-26.8,27.4,0,13.4,8.1,20.5,28,25,16.9,3.8,21.1,6.4,19,12-1.3,3.6-6.4,5.6-14.4,5.6-6.7,0-17.7-2.8-21.1-5.4a10.67,10.67,0,0,0-5.7-1.6c-4.5,0-7.8,3.6-7.8,8.5,0,9.8,15.6,16.1,38.2,15.3,9.5-.3,12.2-.8,16.8-2.9,11.5-5.4,16.4-12.5,16.4-23.9-.1-13.1-7.2-19.6-27.3-24.6-13.1-3.3-16.3-4.4-18.3-6.2-2.6-2.2-2.2-6.4.8-9.3,2.3-2.2,3.4-2.4,11.7-2.4s9.7.3,15.4,3.2c7.7,4.1,11.4,4.2,14.2.7,4.8-6.2,1.4-13.2-8.7-17.7A55,55,0,0,0,2856.4,591Z" transform="translate(-18.65 -127.63)"/><path d="M2077.9,592.1c-6.4,1.8-6.3,1.5-6.3,42.7v37.3l2.5,2.4c2.4,2.5,2.5,2.5,22.2,2.5,21.7,0,27.8-.9,36.5-5.7,14.1-7.7,21.5-25.1,18.8-44.3-2.8-20.1-16.2-32.5-37.5-35C2103.2,590.8,2082.3,590.8,2077.9,592.1Zm40.7,20.7c7.4,3.6,10.2,8.6,10.8,19.3.5,9.4-1.4,16.2-6.1,20.7s-10.4,6.2-20.8,6.2h-8.9V634.7c0-13.4.3-24.7.8-25.1s4.8-.5,9.7-.2C2111,609.9,2114.4,610.7,2118.6,612.8Z" transform="translate(-18.65 -127.63)"/><path d="M2177.6,592.3c-5.9,2-6,2.5-6,42,0,37.6.3,40.5,4.5,42.1.9.3,13.3.6,27.4.6,24.6,0,26-.1,28.5-2.1,3.2-2.6,3.6-8.4.7-12-1.9-2.3-2.4-2.4-20.5-2.7l-18.6-.3V642h16.8c18.6,0,20.5-.5,21.7-6.1.9-3.9-1-8.3-4.1-9.8-1.5-.7-8.7-1.1-18.4-1.1h-16V609H2210c21.6,0,24.6-1.1,24.6-9.4,0-4.3-2.7-7.1-7.8-8C2220,590.5,2181.3,591,2177.6,592.3Z" transform="translate(-18.65 -127.63)"/><path d="M2309.9,592.1c-6.4,1.8-6.3,1.5-6.3,42.7v37.3l2.5,2.5,2.5,2.5,24.8-.3,24.9-.3,5.8-3a24.07,24.07,0,0,0,9-7.4c2.7-3.9,3-5,3-12.4,0-9.9-2.2-14.3-9.1-18.3l-4.4-2.6,3.9-2.8a20.3,20.3,0,0,0,6.5-23.8c-3.3-8-10.2-12.6-21.1-14.2C2343.4,590.8,2314.2,590.9,2309.9,592.1Zm39.5,17.8c2.9,1.5,4.5,5.6,3.7,9.3-1,4.5-4.8,5.8-17,5.8h-10.5V607.7l10.8.5C2342.3,608.4,2348.1,609.2,2349.4,609.9Zm3.6,35c3.2,3,3.5,8.7.7,12.2-1.8,2.3-2.7,2.4-15,2.7l-13.1.4V641.8l12.4.3C2349.5,642.5,2350.6,642.7,2353,644.9Z" transform="translate(-18.65 -127.63)"/><path d="M2402.9,592.1c-6.2,1.8-6.3,2.8-6.3,42.4,0,36.4.2,38.4,3.9,41.2,1.2.9,8.8,1.2,27.7,1.3,24.9,0,26.2-.1,28.8-2.1,3.2-2.6,3.6-8.4.7-12-1.9-2.3-2.4-2.4-20.5-2.7l-18.6-.3V642h16.8c18.6,0,20.5-.5,21.7-6.1.9-3.9-1-8.3-4.1-9.8-1.5-.7-8.7-1.1-18.4-1.1h-16V609H2435c21.6,0,24.6-1.1,24.6-9.2,0-4.6-1.8-6.7-6.5-7.8C2447.9,590.8,2407.1,590.9,2402.9,592.1Z" transform="translate(-18.65 -127.63)"/><path d="M2487.9,592c-6.4,2-6.3,1.7-6.3,41.8,0,39.3.3,41.5,5.4,42.8,1.2.3,12.8.4,25.8.2l23.5-.3,5.8-3c8.4-4.3,11.8-9.4,12.3-18.5.6-9.3-2.1-15-8.9-19.3l-4.8-3,3.8-2.7c10.9-8,10.7-25.3-.5-32.9-6.8-4.7-10.7-5.4-32.4-5.7C2499.9,591.2,2489.7,591.5,2487.9,592Zm39.5,17.9c2.9,1.5,4.5,5.6,3.7,9.3-1,4.5-4.8,5.8-17,5.8h-10.5V607.7l10.8.5C2520.3,608.4,2526.1,609.2,2527.4,609.9Zm.4,33.1c2.1.6,4.2,1.9,4.8,3,1.6,3,1.2,8.6-.9,11.1-1.8,2.3-2.7,2.4-15,2.7l-13.1.4V642h10.3A82.54,82.54,0,0,1,2527.8,643Z" transform="translate(-18.65 -127.63)"/><path d="M2581.5,593.9l-2.9,2.9v75.4l2.9,2.9c2.3,2.3,3.8,2.9,7.1,2.9,4.7,0,9.5-2.1,11-4.9.6-1.3,1-15.5,1-39.1V596.8l-2.9-2.9c-2.5-2.5-3.7-2.9-8.1-2.9S2584,591.4,2581.5,593.9Z" transform="translate(-18.65 -127.63)"/><path d="M2634.9,592.1c-6.4,1.8-6.3,1.5-6.3,42.7v37.3l2.5,2.4c2.4,2.5,2.5,2.5,22.2,2.5,21.7,0,27.8-.9,36.5-5.7,14-7.6,21.8-25.7,19-44.5-3-19.8-16.5-32.4-37.7-34.8C2660.2,590.8,2639.3,590.8,2634.9,592.1Zm38.1,19.1c5.2,1.6,10.8,7.2,12.4,12.4s1.6,15.6.1,20.9-8.2,11.9-13.4,13.4a64.58,64.58,0,0,1-12.7,1.1h-8.8V634.7c0-13.4.3-24.7.8-25.1C2652.4,608.5,2668,609.7,2673,611.2Z" transform="translate(-18.65 -127.63)"/><path d="M2757.6,593.7c-4.3,4-36,69.7-36,74.7,0,7.1,8.3,11.6,14.9,8.1,2.4-1.2,4-3.4,6.6-9.1l3.4-7.4h39.6l3.4,7.5c2.5,5.6,4.2,8,6.4,9.1,6.2,3.3,14.7-1.4,14.7-8,0-2.4-5-13.7-16.9-38.3-18.8-38.8-19.2-39.3-28.2-39.3C2761.6,591,2760,591.5,2757.6,593.7Zm14.5,35.2c3,6.8,5.5,12.7,5.5,13.2s-5.2.9-11.6.9c-9.9,0-11.5-.2-11-1.5,1.9-5.1,11.1-25.4,11.3-25.1C2766.5,616.5,2769.1,622.2,2772.1,628.9Z" transform="translate(-18.65 -127.63)"/><path d="M335.8,883.5c0,1.6.2,2.2.5,1.2a7.56,7.56,0,0,0,0-3C336,881.1,335.8,881.8,335.8,883.5Z" transform="translate(-18.65 -127.63)"/></svg>