<?xml version="1.0" encoding="utf-8"?>
<!-- Generator: Adobe Illustrator 25.4.1, SVG Export Plug-In . SVG Version: 6.00 Build 0)  -->
<svg version="1.1" xmlns="http://www.w3.org/2000/svg" xmlns:xlink="http://www.w3.org/1999/xlink" x="0px" y="0px"
	 viewBox="0 0 125.1 178.34" style="enable-background:new 0 0 125.1 178.34;" xml:space="preserve">
<style type="text/css">
	.st0{fill:#FFC024;}
</style>
<g id="BG">
</g>
<g id="Graphics">
	<g>
		<g>
			<path d="M98.44,67.27H88.2l-0.22-5.08c4.53-3.75,7.41-9.41,7.41-15.73c0-11.26-9.16-20.42-20.41-20.42h-1.97
				c-3-9.1-11.33-14.48-20.79-14.48c-7.61,0-14.35,3.53-18.15,8.82c-2.97,0.01-14.7-0.83-22.87,8.61
				c-8.8,10.19-6.22,25.48,3.36,32.73l-5.22,99.61c-0.3,5.68,4.22,10.44,9.91,10.44h62.97c5.7,0,10.25-4.75,10.01-10.45l-0.94-21.98
				h7.13c11.2,0,20.3-9.11,20.3-20.3V87.56C118.74,76.37,109.63,67.27,98.44,67.27z M76.45,59.4H52.09V58
				c0-2.04-1.65-3.69-3.69-3.69c-2.04,0-3.69,1.65-3.69,3.69v38.06c0,3.33-2.71,6.03-6.03,6.03c-3.32,0-6.03-2.71-6.03-6.03V58
				c0-2.04-1.65-3.69-3.69-3.69c-2.04,0-3.69,1.65-3.69,3.69v0.66c-6.31-1.58-10.81-5.58-11.89-12.89
				c-1.5-10.21,6.93-18.13,18.01-18.01c2.22,0.01,4.24,0,6.19,0c0.33,0,0.65,0,0.97,0c1.68-5.56,7.77-8.82,13.69-8.82
				c8.35,0,14.56,5.76,14.56,14.47c1.91,0,4.98,0,8.2,0c7.2,0,13.03,5.84,13.03,13.04C88.02,53.16,82.96,58.67,76.45,59.4z
				 M103.37,119.05c0,2.72-2.21,4.93-4.93,4.93h-7.8l-1.77-41.34h9.57c2.72,0,4.93,2.22,4.93,4.93V119.05z"/>
			<path class="st0" d="M21.54,157.25h58.15l-3.78-87.83H56.79v24.39c0,10.09-8.21,18.3-18.31,18.3c-5.73,0-10.86-2.65-14.22-6.79
				L21.54,157.25z"/>
		</g>
		<text transform="matrix(1 0 0 1 138.2895 99.0973)" style="font-family:'TTSupersizeBk'; font-size:38px;">DELIVERY DRINKS</text>
		<text transform="matrix(1 0 0 1 138.2897 145.6556)" class="st0" style="font-family:'GillSans-SemiBold'; font-size:41px;">pediu chegou</text>
	</g>
</g>
</svg>
